<?xml version="1.0" encoding="UTF-8" standalone="no"?><svg xmlns="http://www.w3.org/2000/svg" xmlns:xlink="http://www.w3.org/1999/xlink" fill="#f14159" height="383.1" preserveAspectRatio="xMidYMid meet" version="1" viewBox="11.2 58.2 479.2 383.1" width="479.2" zoomAndPan="magnify"><g id="change1_1"><path d="M353.65,66.36c-4.76-0.58-9.5-1.3-14.27-1.71c-8.89-0.76-17.79-1.69-26.7-1.93c-12.32-0.33-24.65,0.55-36.86,2.19 c-10.99,1.47-22,3.16-32.81,5.61c-13.27,3.01-26.41,6.67-39.48,10.48c-18.57,5.43-35.9,13.8-53.01,22.74 c-13.08,6.83-25.31,14.96-37.43,23.24c-7.01,4.79-13.27,10.7-19.64,16.36c-6.64,5.9-13.39,11.76-19.42,18.26 c-9.78,10.54-17.91,22.36-25.63,34.51c-5.79,9.12-10.25,18.84-14.19,28.75c-2.79,7.02-4.33,14.67-5.44,22.18 c-1.32,8.98-2.29,18.12-2.12,27.17c0.17,9.41,0.78,19.09,3.2,28.12c2.81,10.52,6.59,20.97,12.2,30.48 c4.5,7.62,8.89,15.41,14.27,22.39c8.07,10.46,17.58,19.63,28.38,27.38c3.83,2.74,7.29,6.04,11.28,8.5 c6.1,3.75,12.41,7.23,18.85,10.37c5.34,2.6,10.96,4.66,16.55,6.72c4.55,1.68,9.21,3.12,13.88,4.44c5.38,1.52,10.79,2.95,16.26,4.13 c4.04,0.87,8.32,0.81,12.23,2.01c6.29,1.93,12.88,0.49,19.14,2.38c1.84,0.56,3.99,0.14,5.99,0.09c0.89-0.02,1.9-0.58,2.66-0.32 c6.8,2.27,13.57-0.17,20.31,0.07c7.21,0.26,14.2-2.24,21.46-1.03c2.13,0.36,4.51-0.54,6.74-1.04c7.34-1.67,14.71-3.27,21.98-5.2 c9.42-2.5,19.03-4.64,28.08-8.14c12.34-4.78,24.29-10.58,36.3-16.18c8.8-4.11,16.79-9.73,25.24-14.41 c13.9-7.69,25.27-18.28,36.94-28.62c5.4-4.78,9.98-10.56,15.68-14.9c5.96-4.54,9.63-11.05,15.28-15.81 c2.87-2.42,4.57-6.23,6.77-9.43c4.5-6.55,9.57-12.81,13.32-19.76c4.94-9.16,9.69-18.61,12.93-28.45c2.76-8.38,4.98-17.07,5.09-26.28 c0.08-7.03,0.27-13.98-0.94-20.9c-1.83-10.42-4.35-20.58-11.71-28.8c-1.56-1.74-2.67-3.88-4.14-5.72c-0.98-1.23-2.2-2.27-3.35-3.35 c-0.79-0.74-1.82-1.27-2.44-2.11c-4.14-5.65-10.09-9.3-15.45-13.46c-4.76-3.69-10.35-6.38-15.78-9.09 c-9.42-4.71-18.96-9.17-28.52-13.59c-5.78-2.67-11.73-4.97-17.52-7.61c-2.21-1.01-4.92-1.63-5.96-5.24c1.5-0.31,2.85-0.98,4.05-0.78 c8.26,1.38,16.54,2.75,24.73,4.49c6.92,1.47,13.77,3.27,20.57,5.23c5.04,1.45,10.02,3.18,14.87,5.18 c5.48,2.25,11.15,4.36,16.07,7.57c6.16,4.01,12.82,7.4,18.03,12.85c3.99,4.17,8.38,7.96,12.57,11.95c0.39,0.37,0.71,0.85,0.93,1.34 c3.98,9.09,10.59,16.78,12.93,26.84c2.35,10.07,3.75,20,2.42,30.29c-0.22,1.68,0.44,3.46,0.49,5.2c0.16,6.04-1.4,11.81-3.04,17.54 c-1.8,6.27-3.35,12.64-5.59,18.75c-4.76,12.97-12.35,24.47-19.24,36.36c-4.93,8.51-10.6,16.43-16.51,24.22 c-1.35,1.78-2.94,3.43-4.62,4.91c-5.81,5.11-8.76,12.75-15.94,16.86c-4.07,2.33-6.95,6.74-10.35,10.23c-0.63,0.64-1.04,1.78-1.76,2 c-6.12,1.84-9.04,7.49-13.57,11.2c-0.13,0.11-0.16,0.39-0.3,0.45c-6.2,2.6-10.05,8.43-15.58,11.64c-3.7,2.15-6.74,6.29-11.81,5.89 c-0.33-0.03-0.89,0.11-1,0.33c-2.05,4.27-6.61,5.34-9.85,8.02c-2.22,1.84-4.63,1.78-6.81,2.85c-2.91,1.42-5.53,3.4-8.33,5.04 c-3.12,1.83-6.16,3.89-9.49,5.23c-8.75,3.52-16.95,8.31-26.41,10.22c-5.44,1.1-10.55,3.79-15.82,5.72c-3.72,1.36-7.36,2.7-11.5,2.92 c-3.27,0.17-6.4,2.19-9.7,2.84c-6.22,1.23-12.52,2.1-18.79,3.05c-4.89,0.74-9.79,1.46-14.7,2.02c-3.51,0.4-7.06,0.72-10.59,0.77 c-8.66,0.12-17.33,0.24-25.99,0.01c-4.99-0.13-9.96-1.02-14.95-1.4c-2.3-0.18-4.68,0.38-6.93,0.03c-4.31-0.66-8.55-1.79-12.83-2.62 c-5.12-0.99-10.33-1.61-15.37-2.88c-7.35-1.86-14.73-3.76-21.81-6.4c-6.91-2.58-13.47-6.11-20.17-9.24 c-4.26-1.99-8.54-3.93-12.74-6.05c-2.54-1.28-4.93-2.85-7.37-4.31C79.8,401.97,70.4,394.66,61.4,386.9 c-4.89-4.21-9.32-9.01-12.95-14.53c-3.06-4.66-6.99-8.74-10.36-13.21c-1.82-2.41-3.25-5.11-4.89-7.66 c-3.67-5.73-7.62-11.31-9.94-17.77c-2.12-5.89-3.91-11.9-6.05-17.78c-2.99-8.23-4.38-16.78-5.46-25.39 c-0.47-3.72-0.58-7.51-0.55-11.27c0.09-9.74,0.56-19.4,2.09-29.11c3.02-19.1,10-36.72,19.49-53.2 c6.35-11.03,13.42-21.82,22.44-31.12c6.2-6.39,11.4-13.82,17.95-19.81c7.84-7.17,15.27-14.9,24.62-20.37 c4.66-2.72,8.53-6.78,13.15-9.59c11.02-6.69,22.11-13.29,33.47-19.38c8.64-4.63,17.6-8.71,26.66-12.46 c7.02-2.91,14.36-5.09,21.65-7.32c8.64-2.64,17.35-5.07,26.09-7.39c5.27-1.4,10.61-2.61,15.98-3.56c8.54-1.52,17.13-2.79,25.7-4.12 c19.17-2.96,38.48-3.69,57.77-2.4c10.81,0.72,21.53,2.85,32.28,4.44c1.2,0.18,2.31,0.94,3.47,1.44 C353.89,65.69,353.77,66.02,353.65,66.36z"/></g></svg>