<?xml version="1.0" encoding="UTF-8" standalone="no"?><svg xmlns="http://www.w3.org/2000/svg" xmlns:xlink="http://www.w3.org/1999/xlink" fill="#000000" height="531.6" preserveAspectRatio="xMidYMid meet" version="1" viewBox="0.0 0.0 500.0 531.6" width="500" zoomAndPan="magnify"><defs><clipPath id="a"><path d="M 0 196 L 500 196 L 500 531.609375 L 0 531.609375 Z M 0 196"/></clipPath></defs><g><g clip-path="url(#a)" id="change1_1"><path d="M 0 196.496094 L 0 488.714844 C 0 505.074219 26.535156 531.609375 59.269531 531.609375 L 440.234375 531.609375 C 472.96875 531.609375 499.503906 505.074219 499.503906 488.714844 L 499.503906 196.496094 L 0 196.496094" fill="#c8c9cc"/></g><g id="change2_1"><path d="M 440.730469 21.996094 L 59.765625 21.996094 C 27.03125 21.996094 0.496094 48.53125 0.496094 81.261719 L 0 196.496094 L 499.503906 196.496094 L 500 81.261719 C 500 48.53125 473.464844 21.996094 440.730469 21.996094" fill="#59853f"/></g><g id="change3_1"><path d="M 79.871094 62.105469 C 89.410156 62.105469 97.144531 54.371094 97.144531 44.835938 C 97.144531 39.78125 94.957031 35.246094 91.496094 32.089844 L 91.496094 43.507812 C 91.496094 49.925781 86.292969 55.128906 79.871094 55.128906 C 73.453125 55.128906 68.25 49.925781 68.25 43.507812 L 68.25 32.089844 C 64.789062 35.246094 62.601562 39.78125 62.601562 44.835938 C 62.601562 54.371094 70.335938 62.105469 79.871094 62.105469" fill="#ffffff"/></g><g id="change3_2"><path d="M 165.0625 62.105469 C 174.597656 62.105469 182.328125 54.371094 182.328125 44.835938 C 182.328125 39.78125 180.144531 35.246094 176.683594 32.089844 L 176.683594 43.507812 C 176.683594 49.925781 171.480469 55.128906 165.0625 55.128906 C 158.640625 55.128906 153.4375 49.925781 153.4375 43.507812 L 153.4375 32.089844 C 149.976562 35.246094 147.789062 39.78125 147.789062 44.835938 C 147.789062 54.371094 155.523438 62.105469 165.0625 62.105469" fill="#ffffff"/></g><g id="change3_3"><path d="M 250.246094 62.105469 C 259.785156 62.105469 267.519531 54.371094 267.519531 44.835938 C 267.519531 39.78125 265.332031 35.246094 261.871094 32.089844 L 261.871094 43.507812 C 261.871094 49.925781 256.667969 55.128906 250.246094 55.128906 C 243.828125 55.128906 238.625 49.925781 238.625 43.507812 L 238.625 32.089844 C 235.164062 35.246094 232.976562 39.78125 232.976562 44.835938 C 232.976562 54.371094 240.710938 62.105469 250.246094 62.105469" fill="#ffffff"/></g><g id="change3_4"><path d="M 420.621094 62.105469 C 430.160156 62.105469 437.894531 54.371094 437.894531 44.835938 C 437.894531 39.78125 435.707031 35.246094 432.246094 32.089844 L 432.246094 43.507812 C 432.246094 49.925781 427.042969 55.128906 420.621094 55.128906 C 414.203125 55.128906 409 49.925781 409 43.507812 L 409 32.089844 C 405.539062 35.246094 403.351562 39.78125 403.351562 44.835938 C 403.351562 54.371094 411.085938 62.105469 420.621094 62.105469" fill="#ffffff"/></g><g id="change3_5"><path d="M 335.4375 62.105469 C 344.972656 62.105469 352.707031 54.371094 352.707031 44.835938 C 352.707031 39.78125 350.519531 35.246094 347.058594 32.089844 L 347.058594 43.507812 C 347.058594 49.925781 341.855469 55.128906 335.4375 55.128906 C 329.015625 55.128906 323.8125 49.925781 323.8125 43.507812 L 323.8125 32.089844 C 320.351562 35.246094 318.164062 39.78125 318.164062 44.835938 C 318.164062 54.371094 325.898438 62.105469 335.4375 62.105469" fill="#ffffff"/></g><g id="change3_6"><path d="M 0 196.496094 L 0 472.339844 C 0 488.699219 26.535156 515.234375 59.269531 515.234375 L 440.234375 515.234375 C 472.96875 515.234375 499.503906 488.699219 499.503906 472.339844 L 499.503906 196.496094 L 0 196.496094" fill="#ffffff"/></g><g id="change3_7"><path d="M 389.03125 122.871094 C 386.023438 125.664062 384.011719 127.902344 382.992188 129.59375 C 381.972656 131.28125 381.359375 133.070312 381.15625 134.953125 L 399.988281 134.953125 L 399.988281 129.964844 L 389.320312 129.964844 C 389.601562 129.480469 389.96875 128.984375 390.421875 128.472656 C 390.871094 127.964844 391.945312 126.933594 393.640625 125.378906 C 395.335938 123.824219 396.507812 122.632812 397.15625 121.804688 C 398.140625 120.554688 398.855469 119.359375 399.308594 118.21875 C 399.761719 117.078125 399.988281 115.878906 399.988281 114.613281 C 399.988281 112.398438 399.195312 110.542969 397.617188 109.050781 C 396.035156 107.5625 393.863281 106.816406 391.097656 106.816406 C 388.574219 106.816406 386.472656 107.460938 384.789062 108.746094 C 383.105469 110.03125 382.105469 112.15625 381.789062 115.113281 L 387.140625 115.648438 C 387.242188 114.078125 387.625 112.957031 388.289062 112.28125 C 388.949219 111.605469 389.84375 111.269531 390.964844 111.269531 C 392.097656 111.269531 392.988281 111.589844 393.632812 112.234375 C 394.273438 112.878906 394.597656 113.800781 394.597656 114.996094 C 394.597656 116.082031 394.226562 117.175781 393.488281 118.285156 C 392.9375 119.089844 391.453125 120.617188 389.03125 122.871094" fill="#ffffff"/></g><g id="change3_8"><path d="M 415.625 128.128906 C 415.34375 129.199219 414.949219 129.945312 414.441406 130.355469 C 413.929688 130.773438 413.351562 130.980469 412.699219 130.980469 C 412.050781 130.980469 411.472656 130.773438 410.96875 130.367188 C 410.46875 129.960938 410.050781 129.140625 409.71875 127.910156 C 409.386719 126.679688 409.222656 124.421875 409.222656 121.132812 C 409.222656 117.847656 409.40625 115.507812 409.773438 114.117188 C 410.054688 113.046875 410.449219 112.304688 410.960938 111.890625 C 411.46875 111.476562 412.050781 111.269531 412.699219 111.269531 C 413.351562 111.269531 413.925781 111.476562 414.429688 111.890625 C 414.933594 112.304688 415.351562 113.128906 415.683594 114.355469 C 416.015625 115.585938 416.179688 117.847656 416.179688 121.132812 C 416.179688 124.421875 415.992188 126.753906 415.625 128.128906 Z M 412.699219 106.816406 C 409.984375 106.816406 407.867188 107.769531 406.351562 109.683594 C 404.519531 112.003906 403.601562 115.800781 403.601562 121.074219 C 403.601562 126.453125 404.433594 130.191406 406.105469 132.289062 C 407.773438 134.386719 409.972656 135.433594 412.699219 135.433594 C 415.414062 135.433594 417.527344 134.476562 419.046875 132.566406 C 420.882812 130.246094 421.800781 126.4375 421.800781 121.132812 C 421.800781 115.820312 420.886719 112.015625 419.066406 109.722656 C 417.535156 107.785156 415.414062 106.816406 412.699219 106.816406" fill="#ffffff"/></g><g id="change3_9"><path d="M 428.335938 108.746094 C 426.65625 110.03125 425.652344 112.15625 425.335938 115.113281 L 430.6875 115.648438 C 430.789062 114.078125 431.171875 112.957031 431.835938 112.28125 C 432.496094 111.605469 433.390625 111.269531 434.511719 111.269531 C 435.644531 111.269531 436.535156 111.589844 437.179688 112.234375 C 437.820312 112.878906 438.144531 113.800781 438.144531 114.996094 C 438.144531 116.082031 437.773438 117.175781 437.035156 118.285156 C 436.484375 119.089844 435.003906 120.617188 432.582031 122.871094 C 429.570312 125.664062 427.558594 127.902344 426.539062 129.59375 C 425.519531 131.28125 424.90625 133.070312 424.703125 134.953125 L 443.535156 134.953125 L 443.535156 129.964844 L 432.867188 129.964844 C 433.148438 129.480469 433.515625 128.984375 433.96875 128.472656 C 434.417969 127.964844 435.492188 126.933594 437.1875 125.378906 C 438.882812 123.824219 440.054688 122.632812 440.707031 121.804688 C 441.6875 120.554688 442.402344 119.359375 442.855469 118.21875 C 443.308594 117.078125 443.535156 115.878906 443.535156 114.613281 C 443.535156 112.398438 442.742188 110.542969 441.164062 109.050781 C 439.582031 107.5625 437.410156 106.816406 434.644531 106.816406 C 432.121094 106.816406 430.019531 107.460938 428.335938 108.746094" fill="#ffffff"/></g><g id="change3_10"><path d="M 456.152344 130.980469 C 455.117188 130.980469 454.238281 130.628906 453.511719 129.929688 C 452.785156 129.226562 452.339844 128.214844 452.175781 126.886719 L 446.976562 127.519531 C 447.242188 129.878906 448.210938 131.785156 449.882812 133.242188 C 451.550781 134.703125 453.652344 135.433594 456.191406 135.433594 C 458.867188 135.433594 461.101562 134.566406 462.898438 132.832031 C 464.695312 131.101562 465.59375 129.003906 465.59375 126.542969 C 465.59375 124.847656 465.113281 123.402344 464.152344 122.203125 C 463.191406 121.007812 461.90625 120.234375 460.300781 119.890625 C 462.988281 118.425781 464.332031 116.464844 464.332031 114.003906 C 464.332031 112.269531 463.675781 110.714844 462.363281 109.339844 C 460.769531 107.65625 458.65625 106.816406 456.019531 106.816406 C 454.476562 106.816406 453.085938 107.105469 451.839844 107.6875 C 450.597656 108.265625 449.628906 109.0625 448.933594 110.074219 C 448.238281 111.089844 447.722656 112.441406 447.378906 114.136719 L 452.328125 114.976562 C 452.46875 113.753906 452.863281 112.824219 453.511719 112.1875 C 454.164062 111.550781 454.949219 111.230469 455.863281 111.230469 C 456.796875 111.230469 457.539062 111.511719 458.101562 112.074219 C 458.660156 112.632812 458.941406 113.386719 458.941406 114.328125 C 458.941406 115.4375 458.5625 116.324219 457.796875 116.996094 C 457.03125 117.664062 455.921875 117.980469 454.46875 117.941406 L 453.878906 122.320312 C 454.832031 122.050781 455.652344 121.917969 456.34375 121.917969 C 457.386719 121.917969 458.273438 122.3125 459 123.101562 C 459.726562 123.894531 460.089844 124.964844 460.089844 126.316406 C 460.089844 127.742188 459.710938 128.875 458.953125 129.71875 C 458.195312 130.558594 457.261719 130.980469 456.152344 130.980469" fill="#ffffff"/></g><g id="change3_11"><path d="M 54.132812 178.25 C 53.488281 178.527344 52.753906 178.664062 51.929688 178.664062 C 51.1875 178.664062 50.511719 178.546875 49.910156 178.3125 C 49.304688 178.078125 48.816406 177.734375 48.441406 177.28125 C 48.0625 176.832031 47.847656 176.277344 47.792969 175.628906 L 46.242188 175.628906 C 46.300781 176.5 46.566406 177.265625 47.042969 177.929688 C 47.515625 178.59375 48.167969 179.109375 48.996094 179.484375 C 49.828125 179.859375 50.804688 180.046875 51.929688 180.046875 C 53.125 180.046875 54.152344 179.839844 55.007812 179.429688 C 55.863281 179.015625 56.519531 178.457031 56.980469 177.753906 C 57.4375 177.046875 57.664062 176.25 57.664062 175.367188 C 57.664062 174.679688 57.53125 174.089844 57.265625 173.59375 C 57 173.101562 56.648438 172.683594 56.207031 172.34375 C 55.769531 172 55.285156 171.714844 54.757812 171.488281 C 54.230469 171.265625 53.703125 171.078125 53.171875 170.933594 L 51.429688 170.433594 C 51.03125 170.320312 50.636719 170.179688 50.246094 170.011719 C 49.855469 169.84375 49.5 169.644531 49.179688 169.410156 C 48.859375 169.175781 48.601562 168.894531 48.414062 168.566406 C 48.226562 168.238281 48.132812 167.855469 48.132812 167.417969 C 48.132812 166.824219 48.296875 166.296875 48.628906 165.832031 C 48.960938 165.363281 49.417969 165 50.003906 164.734375 C 50.585938 164.472656 51.265625 164.339844 52.035156 164.339844 C 53.128906 164.339844 54.035156 164.613281 54.757812 165.15625 C 55.480469 165.699219 55.886719 166.433594 55.976562 167.355469 L 57.441406 167.355469 C 57.40625 166.511719 57.15625 165.761719 56.691406 165.101562 C 56.226562 164.445312 55.597656 163.925781 54.804688 163.546875 C 54.015625 163.171875 53.101562 162.980469 52.074219 162.980469 C 51.054688 162.980469 50.140625 163.171875 49.324219 163.550781 C 48.507812 163.933594 47.859375 164.460938 47.386719 165.136719 C 46.90625 165.8125 46.667969 166.59375 46.667969 167.480469 C 46.667969 168.542969 47.027344 169.414062 47.746094 170.101562 C 48.460938 170.785156 49.46875 171.320312 50.765625 171.707031 L 52.746094 172.289062 C 53.429688 172.488281 54.03125 172.71875 54.550781 172.976562 C 55.070312 173.234375 55.476562 173.554688 55.765625 173.933594 C 56.058594 174.3125 56.203125 174.785156 56.203125 175.34375 C 56.203125 176.007812 56.019531 176.585938 55.648438 177.085938 C 55.28125 177.585938 54.773438 177.972656 54.132812 178.25" fill="#ffffff"/></g><g id="change3_12"><path d="M 108.4375 163.21875 L 108.4375 179.761719 L 109.859375 179.761719 L 109.859375 166.40625 L 109.988281 166.40625 L 115.570312 179.761719 L 116.945312 179.761719 L 122.53125 166.40625 L 122.65625 166.40625 L 122.65625 179.761719 L 124.078125 179.761719 L 124.078125 163.21875 L 122.335938 163.21875 L 116.332031 177.632812 L 116.1875 177.632812 L 110.183594 163.21875 L 108.4375 163.21875" fill="#ffffff"/></g><g id="change3_13"><path d="M 186.007812 179.761719 L 186.007812 164.574219 L 191.25 164.574219 L 191.25 163.21875 L 179.253906 163.21875 L 179.253906 164.574219 L 184.496094 164.574219 L 184.496094 179.761719 L 186.007812 179.761719" fill="#ffffff"/></g><g id="change3_14"><path d="M 255.886719 177.445312 L 252.136719 163.21875 L 250.394531 163.21875 L 246.644531 177.445312 L 246.515625 177.445312 L 242.765625 163.21875 L 241.230469 163.21875 L 245.761719 179.761719 L 247.378906 179.761719 L 251.21875 165.730469 L 251.320312 165.730469 L 255.160156 179.761719 L 256.773438 179.761719 L 261.308594 163.21875 L 259.765625 163.21875 L 256.015625 177.445312 L 255.886719 177.445312" fill="#ffffff"/></g><g id="change3_15"><path d="M 317.375 179.761719 L 318.882812 179.761719 L 318.882812 164.574219 L 324.128906 164.574219 L 324.128906 163.21875 L 312.128906 163.21875 L 312.128906 164.574219 L 317.375 164.574219 L 317.375 179.761719" fill="#ffffff"/></g><g id="change3_16"><path d="M 381.738281 172.160156 L 389.050781 172.160156 L 389.050781 170.804688 L 381.738281 170.804688 L 381.738281 164.574219 L 389.800781 164.574219 L 389.800781 163.21875 L 380.226562 163.21875 L 380.226562 179.761719 L 381.738281 179.761719 L 381.738281 172.160156" fill="#ffffff"/></g><g id="change3_17"><path d="M 452.761719 178.25 C 452.117188 178.527344 451.382812 178.664062 450.558594 178.664062 C 449.816406 178.664062 449.140625 178.546875 448.539062 178.3125 C 447.933594 178.078125 447.445312 177.734375 447.070312 177.28125 C 446.691406 176.832031 446.476562 176.277344 446.421875 175.628906 L 444.871094 175.628906 C 444.929688 176.5 445.195312 177.265625 445.671875 177.929688 C 446.144531 178.59375 446.796875 179.109375 447.625 179.484375 C 448.457031 179.859375 449.433594 180.046875 450.558594 180.046875 C 451.753906 180.046875 452.78125 179.839844 453.636719 179.429688 C 454.492188 179.015625 455.148438 178.457031 455.609375 177.753906 C 456.066406 177.046875 456.296875 176.25 456.296875 175.367188 C 456.296875 174.679688 456.160156 174.089844 455.894531 173.59375 C 455.628906 173.101562 455.273438 172.683594 454.835938 172.34375 C 454.398438 172 453.914062 171.714844 453.386719 171.488281 C 452.859375 171.265625 452.328125 171.078125 451.804688 170.933594 L 450.058594 170.433594 C 449.660156 170.320312 449.265625 170.179688 448.875 170.011719 C 448.484375 169.84375 448.128906 169.644531 447.808594 169.410156 C 447.488281 169.175781 447.234375 168.894531 447.042969 168.566406 C 446.855469 168.238281 446.761719 167.855469 446.761719 167.417969 C 446.761719 166.824219 446.925781 166.296875 447.257812 165.832031 C 447.589844 165.363281 448.046875 165 448.632812 164.734375 C 449.21875 164.472656 449.894531 164.339844 450.664062 164.339844 C 451.757812 164.339844 452.664062 164.613281 453.386719 165.15625 C 454.109375 165.699219 454.515625 166.433594 454.605469 167.355469 L 456.070312 167.355469 C 456.035156 166.511719 455.785156 165.761719 455.320312 165.101562 C 454.855469 164.445312 454.226562 163.925781 453.433594 163.546875 C 452.644531 163.171875 451.730469 162.980469 450.703125 162.980469 C 449.6875 162.980469 448.769531 163.171875 447.953125 163.550781 C 447.136719 163.933594 446.488281 164.460938 446.015625 165.136719 C 445.535156 165.8125 445.300781 166.59375 445.300781 167.480469 C 445.300781 168.542969 445.65625 169.414062 446.371094 170.101562 C 447.089844 170.785156 448.097656 171.320312 449.394531 171.707031 L 451.375 172.289062 C 452.058594 172.488281 452.660156 172.71875 453.179688 172.976562 C 453.699219 173.234375 454.105469 173.554688 454.398438 173.933594 C 454.6875 174.3125 454.832031 174.785156 454.832031 175.34375 C 454.832031 176.007812 454.648438 176.585938 454.277344 177.085938 C 453.910156 177.585938 453.402344 177.972656 452.761719 178.25" fill="#ffffff"/></g><g id="change3_18"><path d="M 49.65625 113.261719 L 49.882812 113.261719 L 53.441406 124.21875 L 46.09375 124.21875 Z M 44.539062 129 L 54.992188 129 L 57.136719 135.601562 L 63.699219 135.601562 L 53.71875 106.644531 L 45.828125 106.644531 L 35.832031 135.601562 L 42.390625 135.601562 L 44.539062 129" fill="#ffffff"/></g><g id="change3_19"><path d="M 82.101562 118.980469 C 81.71875 119.714844 81.144531 120.28125 80.375 120.691406 C 79.605469 121.101562 78.632812 121.308594 77.457031 121.308594 L 73.300781 121.308594 L 73.300781 111.652344 L 77.425781 111.652344 C 78.617188 111.652344 79.59375 111.851562 80.367188 112.253906 C 81.140625 112.652344 81.71875 113.214844 82.101562 113.933594 C 82.480469 114.65625 82.671875 115.496094 82.671875 116.460938 C 82.671875 117.410156 82.480469 118.253906 82.101562 118.980469 Z M 84.214844 107.898438 C 82.667969 107.0625 80.796875 106.644531 78.601562 106.644531 L 67.175781 106.644531 L 67.175781 135.601562 L 73.300781 135.601562 L 73.300781 126.214844 L 78.445312 126.214844 C 80.667969 126.214844 82.566406 125.804688 84.136719 124.984375 C 85.707031 124.164062 86.90625 123.019531 87.734375 121.546875 C 88.5625 120.078125 88.976562 118.382812 88.976562 116.460938 C 88.976562 114.535156 88.570312 112.835938 87.757812 111.363281 C 86.941406 109.886719 85.761719 108.730469 84.214844 107.898438" fill="#ffffff"/></g><g id="change3_20"><path d="M 99.085938 111.652344 L 103.214844 111.652344 C 104.394531 111.652344 105.371094 111.824219 106.152344 112.167969 C 106.929688 112.511719 107.507812 113.011719 107.890625 113.671875 C 108.273438 114.332031 108.460938 115.144531 108.460938 116.105469 C 108.460938 117.058594 108.273438 117.851562 107.890625 118.492188 C 107.507812 119.136719 106.929688 119.617188 106.15625 119.9375 C 105.386719 120.257812 104.414062 120.417969 103.246094 120.417969 L 99.085938 120.417969 Z M 92.964844 135.601562 L 99.085938 135.601562 L 99.085938 125.339844 L 103.558594 125.339844 L 109.042969 135.601562 L 115.800781 135.601562 L 109.652344 124.34375 C 109.738281 124.304688 109.839844 124.277344 109.925781 124.234375 C 111.496094 123.5 112.695312 122.441406 113.523438 121.0625 C 114.355469 119.679688 114.769531 118.027344 114.769531 116.105469 C 114.769531 114.191406 114.359375 112.523438 113.546875 111.105469 C 112.730469 109.6875 111.546875 108.589844 109.996094 107.8125 C 108.445312 107.035156 106.578125 106.644531 104.390625 106.644531 L 92.964844 106.644531 L 92.964844 135.601562" fill="#ffffff"/></g><g id="change3_21"><path d="M 125.214844 106.644531 L 119.09375 106.644531 L 119.09375 135.601562 L 125.214844 135.601562 L 125.214844 106.644531" fill="#ffffff"/></g><g id="change3_22"><path d="M 148.800781 130.554688 L 136.386719 130.554688 L 136.386719 106.644531 L 130.265625 106.644531 L 130.265625 135.601562 L 148.800781 135.601562 L 148.800781 130.554688" fill="#ffffff"/></g><g id="change4_1"><path d="M 450.570312 229.621094 L 450.570312 247.175781 L 453.699219 247.175781 L 453.699219 226.492188 L 450.660156 226.492188 L 445.5 229.867188 L 445.5 232.855469 L 450.449219 229.621094 L 450.570312 229.621094" fill="#f14159"/></g><g id="change4_2"><path d="M 48.625 276.054688 C 48.921875 275.503906 49.347656 275.074219 49.898438 274.773438 C 50.449219 274.46875 51.097656 274.316406 51.839844 274.316406 C 52.539062 274.316406 53.167969 274.453125 53.726562 274.726562 C 54.285156 275 54.726562 275.386719 55.050781 275.886719 C 55.371094 276.390625 55.535156 276.984375 55.535156 277.671875 C 55.535156 278.277344 55.414062 278.847656 55.171875 279.386719 C 54.925781 279.925781 54.5625 280.492188 54.074219 281.089844 C 53.585938 281.683594 52.96875 282.378906 52.21875 283.164062 L 45.222656 290.414062 L 45.222656 292.679688 L 58.835938 292.679688 L 58.835938 290.003906 L 49.523438 290.003906 L 49.523438 289.847656 L 53.636719 285.546875 C 54.894531 284.269531 55.878906 283.179688 56.585938 282.28125 C 57.289062 281.382812 57.789062 280.566406 58.074219 279.832031 C 58.359375 279.097656 58.503906 278.347656 58.503906 277.578125 C 58.503906 276.46875 58.222656 275.472656 57.664062 274.585938 C 57.105469 273.699219 56.332031 273 55.335938 272.484375 C 54.34375 271.96875 53.195312 271.710938 51.898438 271.710938 C 50.613281 271.710938 49.464844 271.972656 48.453125 272.496094 C 47.445312 273.015625 46.648438 273.746094 46.070312 274.691406 C 45.492188 275.632812 45.203125 276.734375 45.203125 277.992188 L 48.179688 277.992188 C 48.179688 277.253906 48.328125 276.605469 48.625 276.054688" fill="#f14159"/></g><g id="change4_3"><path d="M 446.917969 285.054688 C 447.28125 284.5 447.78125 284.066406 448.414062 283.75 C 449.046875 283.433594 449.769531 283.273438 450.585938 283.273438 C 451.390625 283.273438 452.109375 283.433594 452.734375 283.75 C 453.359375 284.066406 453.859375 284.5 454.226562 285.054688 C 454.59375 285.605469 454.777344 286.242188 454.785156 286.960938 C 454.777344 287.65625 454.601562 288.261719 454.261719 288.773438 C 453.917969 289.289062 453.433594 289.691406 452.804688 289.976562 C 452.179688 290.261719 451.4375 290.40625 450.585938 290.40625 C 449.722656 290.40625 448.976562 290.261719 448.34375 289.976562 C 447.710938 289.691406 447.222656 289.289062 446.882812 288.773438 C 446.542969 288.261719 446.375 287.65625 446.382812 286.960938 C 446.375 286.242188 446.554688 285.605469 446.917969 285.054688 Z M 447.03125 277.488281 C 447.023438 276.84375 447.167969 276.277344 447.464844 275.792969 C 447.761719 275.304688 448.175781 274.933594 448.710938 274.664062 C 449.246094 274.398438 449.871094 274.265625 450.585938 274.265625 C 451.285156 274.265625 451.898438 274.398438 452.433594 274.664062 C 452.964844 274.933594 453.382812 275.304688 453.679688 275.792969 C 453.980469 276.277344 454.132812 276.84375 454.140625 277.488281 C 454.132812 278.148438 453.976562 278.722656 453.671875 279.214844 C 453.363281 279.707031 452.945312 280.089844 452.410156 280.367188 C 451.882812 280.640625 451.269531 280.78125 450.585938 280.78125 C 449.882812 280.78125 449.265625 280.640625 448.730469 280.367188 C 448.195312 280.089844 447.777344 279.707031 447.472656 279.214844 C 447.171875 278.722656 447.023438 278.148438 447.03125 277.488281 Z M 446.75 292.214844 C 447.859375 292.710938 449.136719 292.960938 450.585938 292.960938 C 452.019531 292.960938 453.289062 292.710938 454.398438 292.214844 C 455.503906 291.714844 456.371094 291.027344 456.996094 290.152344 C 457.625 289.277344 457.941406 288.28125 457.945312 287.164062 C 457.941406 286.289062 457.75 285.480469 457.375 284.742188 C 457.003906 284.007812 456.503906 283.390625 455.882812 282.898438 C 455.257812 282.402344 454.558594 282.089844 453.785156 281.953125 L 453.785156 281.832031 C 454.789062 281.582031 455.605469 281.03125 456.230469 280.175781 C 456.855469 279.320312 457.171875 278.335938 457.179688 277.226562 C 457.171875 276.175781 456.882812 275.234375 456.3125 274.402344 C 455.738281 273.570312 454.957031 272.914062 453.964844 272.433594 C 452.96875 271.953125 451.84375 271.710938 450.585938 271.710938 C 449.3125 271.710938 448.175781 271.949219 447.179688 272.429688 C 446.183594 272.90625 445.402344 273.5625 444.832031 274.394531 C 444.261719 275.226562 443.984375 276.167969 443.988281 277.226562 C 443.984375 278.335938 444.289062 279.320312 444.910156 280.175781 C 445.527344 281.03125 446.351562 281.582031 447.382812 281.832031 L 447.382812 281.953125 C 446.601562 282.089844 445.894531 282.402344 445.261719 282.898438 C 444.628906 283.390625 444.128906 284.007812 443.761719 284.742188 C 443.394531 285.480469 443.214844 286.289062 443.222656 287.164062 C 443.214844 288.28125 443.523438 289.277344 444.152344 290.152344 C 444.777344 291.027344 445.644531 291.714844 446.75 292.214844" fill="#f14159"/></g><g id="change4_4"><path d="M 48.175781 321.953125 C 48.539062 321.292969 49.035156 320.769531 49.664062 320.378906 C 50.296875 319.988281 51.003906 319.789062 51.792969 319.789062 C 52.59375 319.789062 53.308594 319.992188 53.933594 320.394531 C 54.558594 320.792969 55.054688 321.324219 55.414062 321.984375 C 55.773438 322.644531 55.953125 323.359375 55.953125 324.132812 C 55.953125 324.707031 55.84375 325.253906 55.625 325.773438 C 55.40625 326.296875 55.105469 326.761719 54.726562 327.167969 C 54.34375 327.574219 53.898438 327.894531 53.386719 328.121094 C 52.875 328.351562 52.324219 328.46875 51.730469 328.46875 C 50.9375 328.46875 50.230469 328.277344 49.617188 327.894531 C 49 327.515625 48.515625 327 48.160156 326.347656 C 47.808594 325.695312 47.632812 324.964844 47.632812 324.164062 C 47.632812 323.351562 47.8125 322.613281 48.175781 321.953125 Z M 47.796875 330.132812 C 48.777344 330.71875 49.863281 331.011719 51.054688 331.011719 C 51.789062 331.011719 52.476562 330.898438 53.125 330.667969 C 53.773438 330.441406 54.355469 330.117188 54.878906 329.699219 C 55.398438 329.28125 55.835938 328.78125 56.1875 328.203125 L 56.347656 328.203125 C 56.339844 330.582031 55.914062 332.429688 55.066406 333.753906 C 54.21875 335.078125 53.035156 335.738281 51.519531 335.738281 C 50.53125 335.738281 49.722656 335.464844 49.101562 334.914062 C 48.476562 334.367188 48.066406 333.648438 47.863281 332.757812 L 44.78125 332.757812 C 44.929688 333.878906 45.304688 334.863281 45.90625 335.722656 C 46.503906 336.582031 47.28125 337.253906 48.238281 337.738281 C 49.191406 338.222656 50.285156 338.464844 51.519531 338.464844 C 52.726562 338.464844 53.808594 338.214844 54.765625 337.707031 C 55.726562 337.203125 56.546875 336.464844 57.226562 335.496094 C 57.90625 334.527344 58.425781 333.335938 58.785156 331.925781 C 59.148438 330.515625 59.332031 328.90625 59.335938 327.09375 C 59.332031 325.1875 59.109375 323.597656 58.675781 322.328125 C 58.242188 321.054688 57.660156 320.042969 56.9375 319.292969 C 56.214844 318.539062 55.40625 318 54.511719 317.671875 C 53.613281 317.339844 52.703125 317.171875 51.78125 317.164062 C 50.335938 317.15625 49.074219 317.46875 48 318.089844 C 46.925781 318.714844 46.089844 319.558594 45.496094 320.625 C 44.898438 321.691406 44.601562 322.886719 44.601562 324.203125 C 44.601562 325.523438 44.890625 326.695312 45.464844 327.71875 C 46.039062 328.742188 46.816406 329.546875 47.796875 330.132812" fill="#f14159"/></g><g id="change4_5"><path d="M 441.753906 320.628906 L 441.753906 338.183594 L 444.886719 338.183594 L 444.886719 317.5 L 441.84375 317.5 L 436.683594 320.871094 L 436.683594 323.863281 L 441.632812 320.628906 L 441.753906 320.628906" fill="#f14159"/></g><g id="change4_6"><path d="M 453.898438 337.734375 C 454.90625 338.222656 456.039062 338.464844 457.308594 338.464844 C 458.691406 338.464844 459.921875 338.164062 460.996094 337.5625 C 462.070312 336.957031 462.914062 336.132812 463.523438 335.082031 C 464.132812 334.03125 464.433594 332.835938 464.425781 331.496094 C 464.433594 330.15625 464.152344 328.96875 463.582031 327.9375 C 463.015625 326.902344 462.234375 326.085938 461.25 325.488281 C 460.265625 324.890625 459.140625 324.589844 457.882812 324.589844 C 457.113281 324.589844 456.394531 324.71875 455.726562 324.984375 C 455.054688 325.246094 454.519531 325.570312 454.113281 325.960938 L 453.996094 325.960938 L 454.652344 320.175781 L 463.425781 320.175781 L 463.425781 317.5 L 452.054688 317.5 L 450.894531 327.921875 L 453.75 328.347656 C 454.140625 327.996094 454.652344 327.714844 455.285156 327.496094 C 455.921875 327.28125 456.550781 327.175781 457.175781 327.175781 C 457.996094 327.179688 458.726562 327.371094 459.363281 327.75 C 459.996094 328.128906 460.496094 328.644531 460.863281 329.304688 C 461.226562 329.964844 461.40625 330.714844 461.40625 331.558594 C 461.40625 332.386719 461.230469 333.121094 460.875 333.769531 C 460.523438 334.414062 460.039062 334.921875 459.421875 335.289062 C 458.808594 335.65625 458.101562 335.839844 457.308594 335.839844 C 456.308594 335.839844 455.453125 335.554688 454.742188 334.980469 C 454.027344 334.40625 453.632812 333.679688 453.558594 332.789062 L 450.53125 332.789062 C 450.570312 333.886719 450.890625 334.863281 451.488281 335.71875 C 452.089844 336.574219 452.890625 337.246094 453.898438 337.734375" fill="#f14159"/></g><g id="change4_7"><path d="M 42.898438 366.132812 L 42.898438 383.6875 L 46.03125 383.6875 L 46.03125 363.003906 L 42.992188 363.003906 L 37.828125 366.378906 L 37.828125 369.367188 L 42.78125 366.132812 L 42.898438 366.132812" fill="#f14159"/></g><g id="change4_8"><path d="M 55.003906 375.351562 C 55.222656 374.828125 55.523438 374.367188 55.910156 373.960938 C 56.292969 373.558594 56.738281 373.242188 57.246094 373.011719 C 57.753906 372.785156 58.308594 372.671875 58.90625 372.671875 C 59.695312 372.671875 60.398438 372.859375 61.015625 373.242188 C 61.628906 373.628906 62.113281 374.148438 62.46875 374.800781 C 62.820312 375.453125 63 376.175781 63 376.972656 C 63 377.785156 62.816406 378.523438 62.453125 379.183594 C 62.089844 379.84375 61.59375 380.367188 60.96875 380.757812 C 60.339844 381.148438 59.632812 381.34375 58.835938 381.34375 C 58.042969 381.34375 57.332031 381.144531 56.703125 380.742188 C 56.070312 380.34375 55.578125 379.8125 55.214844 379.152344 C 54.855469 378.492188 54.675781 377.777344 54.675781 377 C 54.675781 376.421875 54.785156 375.871094 55.003906 375.351562 Z M 56.125 383.464844 C 57.015625 383.789062 57.925781 383.957031 58.847656 383.972656 C 60.289062 383.984375 61.546875 383.679688 62.625 383.058594 C 63.703125 382.433594 64.539062 381.585938 65.132812 380.515625 C 65.730469 379.445312 66.027344 378.25 66.027344 376.929688 C 66.027344 375.613281 65.738281 374.441406 65.160156 373.417969 C 64.582031 372.394531 63.804688 371.589844 62.832031 371.007812 C 61.859375 370.425781 60.773438 370.132812 59.574219 370.132812 C 58.851562 370.132812 58.167969 370.246094 57.519531 370.472656 C 56.867188 370.699219 56.28125 371.019531 55.761719 371.433594 C 55.238281 371.847656 54.800781 372.347656 54.445312 372.933594 L 54.292969 372.933594 C 54.300781 370.5625 54.722656 368.714844 55.570312 367.390625 C 56.414062 366.070312 57.59375 365.40625 59.109375 365.40625 C 60.105469 365.40625 60.914062 365.679688 61.535156 366.230469 C 62.152344 366.777344 62.566406 367.496094 62.777344 368.378906 L 65.855469 368.378906 C 65.695312 367.265625 65.316406 366.28125 64.71875 365.425781 C 64.125 364.574219 63.347656 363.898438 62.390625 363.40625 C 61.433594 362.914062 60.339844 362.671875 59.109375 362.671875 C 57.910156 362.671875 56.832031 362.921875 55.867188 363.429688 C 54.90625 363.933594 54.082031 364.671875 53.402344 365.640625 C 52.722656 366.609375 52.203125 367.800781 51.84375 369.210938 C 51.484375 370.621094 51.304688 372.230469 51.304688 374.042969 C 51.304688 375.949219 51.519531 377.535156 51.953125 378.808594 C 52.390625 380.082031 52.96875 381.09375 53.695312 381.851562 C 54.421875 382.605469 55.234375 383.140625 56.125 383.464844" fill="#f14159"/></g><g id="change4_9"><path d="M 439.4375 380.859375 L 443.546875 376.558594 C 444.804688 375.277344 445.789062 374.1875 446.496094 373.289062 C 447.203125 372.390625 447.699219 371.574219 447.984375 370.839844 C 448.269531 370.105469 448.414062 369.355469 448.414062 368.589844 C 448.414062 367.476562 448.136719 366.480469 447.574219 365.59375 C 447.019531 364.710938 446.242188 364.007812 445.246094 363.492188 C 444.253906 362.976562 443.109375 362.71875 441.808594 362.71875 C 440.523438 362.71875 439.375 362.980469 438.367188 363.503906 C 437.355469 364.027344 436.5625 364.757812 435.980469 365.699219 C 435.402344 366.644531 435.113281 367.746094 435.113281 369.003906 L 438.09375 369.003906 C 438.09375 368.261719 438.242188 367.617188 438.535156 367.0625 C 438.832031 366.511719 439.257812 366.082031 439.808594 365.78125 C 440.363281 365.476562 441.007812 365.324219 441.75 365.324219 C 442.449219 365.324219 443.078125 365.460938 443.636719 365.734375 C 444.195312 366.007812 444.636719 366.394531 444.960938 366.898438 C 445.28125 367.398438 445.445312 367.992188 445.445312 368.679688 C 445.445312 369.285156 445.324219 369.859375 445.082031 370.398438 C 444.839844 370.9375 444.472656 371.503906 443.984375 372.097656 C 443.496094 372.695312 442.878906 373.386719 442.132812 374.175781 L 435.132812 381.425781 L 435.132812 383.6875 L 448.746094 383.6875 L 448.746094 381.011719 L 439.4375 381.011719 L 439.4375 380.859375" fill="#f14159"/></g><g id="change4_10"><path d="M 462.691406 363.492188 C 461.695312 362.976562 460.550781 362.71875 459.25 362.71875 C 457.964844 362.71875 456.816406 362.980469 455.808594 363.503906 C 454.796875 364.027344 454 364.757812 453.421875 365.699219 C 452.84375 366.644531 452.554688 367.746094 452.554688 369.003906 L 455.535156 369.003906 C 455.535156 368.261719 455.683594 367.617188 455.976562 367.0625 C 456.273438 366.511719 456.699219 366.082031 457.25 365.78125 C 457.800781 365.476562 458.449219 365.324219 459.191406 365.324219 C 459.890625 365.324219 460.519531 365.460938 461.078125 365.734375 C 461.636719 366.007812 462.078125 366.394531 462.402344 366.898438 C 462.726562 367.398438 462.886719 367.992188 462.886719 368.679688 C 462.886719 369.285156 462.765625 369.859375 462.523438 370.398438 C 462.28125 370.9375 461.914062 371.503906 461.425781 372.097656 C 460.9375 372.695312 460.320312 373.386719 459.574219 374.175781 L 452.574219 381.425781 L 452.574219 383.6875 L 466.1875 383.6875 L 466.1875 381.011719 L 456.878906 381.011719 L 456.878906 380.859375 L 460.988281 376.558594 C 462.246094 375.277344 463.230469 374.1875 463.9375 373.289062 C 464.644531 372.390625 465.140625 371.574219 465.425781 370.839844 C 465.714844 370.105469 465.855469 369.355469 465.855469 368.589844 C 465.855469 367.476562 465.578125 366.480469 465.015625 365.59375 C 464.457031 364.710938 463.683594 364.007812 462.691406 363.492188" fill="#f14159"/></g><g id="change4_11"><path d="M 39.464844 412.566406 C 39.761719 412.015625 40.1875 411.585938 40.738281 411.285156 C 41.289062 410.980469 41.9375 410.828125 42.679688 410.828125 C 43.378906 410.828125 44.007812 410.964844 44.566406 411.238281 C 45.125 411.511719 45.566406 411.898438 45.890625 412.398438 C 46.214844 412.902344 46.375 413.496094 46.375 414.183594 C 46.375 414.789062 46.253906 415.359375 46.011719 415.898438 C 45.769531 416.4375 45.402344 417.003906 44.914062 417.601562 C 44.425781 418.195312 43.808594 418.890625 43.0625 419.675781 L 36.0625 426.929688 L 36.0625 429.191406 L 49.675781 429.191406 L 49.675781 426.511719 L 40.363281 426.511719 L 40.363281 426.359375 L 44.476562 422.058594 C 45.734375 420.78125 46.71875 419.691406 47.425781 418.792969 C 48.132812 417.894531 48.628906 417.078125 48.914062 416.34375 C 49.199219 415.609375 49.34375 414.859375 49.34375 414.089844 C 49.34375 412.980469 49.066406 411.980469 48.503906 411.097656 C 47.945312 410.210938 47.171875 409.511719 46.175781 408.996094 C 45.183594 408.480469 44.035156 408.222656 42.738281 408.222656 C 41.453125 408.222656 40.304688 408.484375 39.292969 409.007812 C 38.285156 409.527344 37.488281 410.261719 36.910156 411.203125 C 36.332031 412.144531 36.042969 413.246094 36.042969 414.507812 L 39.023438 414.507812 C 39.023438 413.765625 39.167969 413.117188 39.464844 412.566406" fill="#f14159"/></g><g id="change4_12"><path d="M 56.992188 428.757812 C 58.082031 429.234375 59.316406 429.472656 60.703125 429.472656 C 62.117188 429.472656 63.375 429.214844 64.472656 428.699219 C 65.570312 428.183594 66.4375 427.476562 67.074219 426.574219 C 67.707031 425.671875 68.023438 424.652344 68.015625 423.515625 C 68.023438 422.207031 67.648438 421.113281 66.890625 420.230469 C 66.132812 419.347656 65.066406 418.804688 63.695312 418.597656 L 63.695312 418.433594 C 64.773438 418.15625 65.636719 417.617188 66.285156 416.808594 C 66.933594 416 67.257812 415.019531 67.25 413.859375 C 67.257812 412.84375 66.996094 411.90625 66.464844 411.050781 C 65.9375 410.195312 65.191406 409.511719 64.226562 408.996094 C 63.257812 408.480469 62.113281 408.222656 60.785156 408.222656 C 59.519531 408.222656 58.367188 408.464844 57.332031 408.941406 C 56.296875 409.417969 55.460938 410.082031 54.832031 410.929688 C 54.203125 411.777344 53.871094 412.761719 53.835938 413.878906 L 56.855469 413.878906 C 56.882812 413.246094 57.078125 412.703125 57.441406 412.25 C 57.804688 411.792969 58.277344 411.445312 58.863281 411.195312 C 59.445312 410.953125 60.070312 410.828125 60.746094 410.828125 C 61.453125 410.828125 62.066406 410.964844 62.589844 411.234375 C 63.109375 411.503906 63.515625 411.875 63.800781 412.351562 C 64.085938 412.824219 64.230469 413.382812 64.230469 414.019531 C 64.230469 414.6875 64.066406 415.269531 63.734375 415.761719 C 63.40625 416.257812 62.949219 416.644531 62.367188 416.921875 C 61.785156 417.195312 61.109375 417.332031 60.339844 417.332031 L 58.59375 417.332031 L 58.59375 419.878906 L 60.339844 419.878906 C 61.296875 419.878906 62.113281 420.03125 62.789062 420.332031 C 63.464844 420.636719 63.980469 421.050781 64.335938 421.578125 C 64.6875 422.109375 64.863281 422.71875 64.863281 423.414062 C 64.863281 424.078125 64.6875 424.667969 64.332031 425.175781 C 63.972656 425.683594 63.480469 426.078125 62.851562 426.359375 C 62.222656 426.644531 61.5 426.785156 60.683594 426.785156 C 59.945312 426.785156 59.269531 426.664062 58.664062 426.421875 C 58.058594 426.179688 57.570312 425.835938 57.195312 425.386719 C 56.820312 424.9375 56.613281 424.410156 56.574219 423.796875 L 53.402344 423.796875 C 53.449219 424.921875 53.789062 425.910156 54.417969 426.761719 C 55.046875 427.613281 55.90625 428.277344 56.992188 428.757812" fill="#f14159"/></g><g id="change4_13"><path d="M 439.117188 426.359375 L 443.226562 422.058594 C 444.488281 420.78125 445.46875 419.691406 446.175781 418.792969 C 446.882812 417.894531 447.378906 417.078125 447.667969 416.34375 C 447.953125 415.609375 448.097656 414.859375 448.097656 414.089844 C 448.097656 412.980469 447.816406 411.980469 447.257812 411.097656 C 446.699219 410.210938 445.921875 409.511719 444.929688 408.996094 C 443.9375 408.480469 442.789062 408.222656 441.492188 408.222656 C 440.203125 408.222656 439.054688 408.484375 438.046875 409.007812 C 437.039062 409.527344 436.242188 410.261719 435.664062 411.203125 C 435.085938 412.144531 434.796875 413.246094 434.796875 414.507812 L 437.773438 414.507812 C 437.773438 413.765625 437.921875 413.117188 438.21875 412.566406 C 438.515625 412.015625 438.9375 411.585938 439.492188 411.285156 C 440.042969 410.980469 440.691406 410.828125 441.429688 410.828125 C 442.128906 410.828125 442.761719 410.964844 443.320312 411.238281 C 443.878906 411.511719 444.316406 411.898438 444.640625 412.398438 C 444.964844 412.902344 445.125 413.496094 445.125 414.183594 C 445.125 414.789062 445.003906 415.359375 444.761719 415.898438 C 444.519531 416.4375 444.15625 417.003906 443.667969 417.601562 C 443.179688 418.195312 442.5625 418.890625 441.8125 419.675781 L 434.816406 426.929688 L 434.816406 429.191406 L 448.429688 429.191406 L 448.429688 426.511719 L 439.117188 426.511719 L 439.117188 426.359375" fill="#f14159"/></g><g id="change4_14"><path d="M 462.976562 416.78125 C 462.757812 417.304688 462.460938 417.769531 462.078125 418.175781 C 461.699219 418.585938 461.253906 418.902344 460.738281 419.132812 C 460.230469 419.359375 459.675781 419.476562 459.085938 419.476562 C 458.289062 419.476562 457.585938 419.285156 456.96875 418.902344 C 456.351562 418.523438 455.867188 418.007812 455.515625 417.355469 C 455.160156 416.699219 454.984375 415.972656 454.984375 415.171875 C 454.984375 414.355469 455.164062 413.621094 455.527344 412.960938 C 455.890625 412.300781 456.390625 411.777344 457.019531 411.386719 C 457.648438 410.992188 458.355469 410.800781 459.144531 410.800781 C 459.945312 410.800781 460.660156 411 461.285156 411.402344 C 461.910156 411.800781 462.402344 412.332031 462.765625 412.988281 C 463.125 413.648438 463.304688 414.367188 463.304688 415.140625 C 463.304688 415.714844 463.195312 416.261719 462.976562 416.78125 Z M 466.027344 413.335938 C 465.59375 412.0625 465.015625 411.050781 464.289062 410.300781 C 463.566406 409.546875 462.757812 409.007812 461.859375 408.679688 C 460.964844 408.347656 460.054688 408.179688 459.136719 408.171875 C 457.6875 408.164062 456.425781 408.476562 455.351562 409.097656 C 454.277344 409.71875 453.441406 410.566406 452.847656 411.632812 C 452.25 412.699219 451.953125 413.894531 451.953125 415.210938 C 451.953125 416.53125 452.242188 417.703125 452.816406 418.726562 C 453.394531 419.75 454.171875 420.554688 455.148438 421.140625 C 456.128906 421.726562 457.214844 422.019531 458.40625 422.019531 C 459.140625 422.019531 459.832031 421.902344 460.476562 421.675781 C 461.121094 421.445312 461.707031 421.125 462.230469 420.707031 C 462.753906 420.289062 463.1875 419.789062 463.535156 419.210938 L 463.699219 419.210938 C 463.691406 421.589844 463.265625 423.4375 462.417969 424.761719 C 461.566406 426.085938 460.386719 426.746094 458.871094 426.746094 C 457.882812 426.746094 457.074219 426.472656 456.453125 425.921875 C 455.828125 425.375 455.417969 424.65625 455.214844 423.765625 L 452.136719 423.765625 C 452.28125 424.886719 452.65625 425.871094 453.257812 426.730469 C 453.855469 427.589844 454.632812 428.261719 455.589844 428.746094 C 456.546875 429.230469 457.640625 429.472656 458.871094 429.472656 C 460.078125 429.472656 461.160156 429.21875 462.117188 428.714844 C 463.078125 428.210938 463.898438 427.472656 464.578125 426.503906 C 465.257812 425.535156 465.777344 424.34375 466.136719 422.933594 C 466.496094 421.523438 466.679688 419.910156 466.6875 418.101562 C 466.679688 416.195312 466.460938 414.605469 466.027344 413.335938" fill="#f14159"/></g><g id="change4_15"><path d="M 45.789062 464.101562 L 45.789062 463.9375 C 46.867188 463.664062 47.730469 463.121094 48.378906 462.3125 C 49.03125 461.503906 49.351562 460.523438 49.34375 459.363281 C 49.351562 458.347656 49.089844 457.410156 48.5625 456.554688 C 48.03125 455.703125 47.285156 455.015625 46.320312 454.5 C 45.351562 453.984375 44.207031 453.726562 42.878906 453.726562 C 41.613281 453.726562 40.460938 453.96875 39.425781 454.445312 C 38.390625 454.925781 37.554688 455.585938 36.925781 456.433594 C 36.296875 457.28125 35.964844 458.265625 35.929688 459.382812 L 38.953125 459.382812 C 38.976562 458.75 39.175781 458.207031 39.535156 457.753906 C 39.902344 457.300781 40.375 456.949219 40.957031 456.703125 C 41.539062 456.457031 42.167969 456.332031 42.839844 456.332031 C 43.546875 456.332031 44.160156 456.46875 44.683594 456.738281 C 45.203125 457.007812 45.609375 457.378906 45.894531 457.855469 C 46.179688 458.328125 46.324219 458.886719 46.324219 459.527344 C 46.324219 460.191406 46.160156 460.773438 45.828125 461.265625 C 45.5 461.761719 45.042969 462.148438 44.460938 462.425781 C 43.878906 462.699219 43.203125 462.835938 42.433594 462.835938 L 40.6875 462.835938 L 40.6875 465.382812 L 42.433594 465.382812 C 43.390625 465.382812 44.207031 465.535156 44.882812 465.835938 C 45.5625 466.140625 46.078125 466.554688 46.429688 467.085938 C 46.78125 467.613281 46.960938 468.226562 46.960938 468.917969 C 46.960938 469.585938 46.78125 470.171875 46.425781 470.679688 C 46.070312 471.1875 45.574219 471.582031 44.945312 471.867188 C 44.316406 472.148438 43.59375 472.289062 42.78125 472.289062 C 42.039062 472.289062 41.367188 472.167969 40.757812 471.925781 C 40.152344 471.683594 39.664062 471.339844 39.289062 470.894531 C 38.917969 470.445312 38.707031 469.914062 38.667969 469.300781 L 35.496094 469.300781 C 35.542969 470.425781 35.882812 471.414062 36.511719 472.265625 C 37.140625 473.117188 38 473.78125 39.089844 474.261719 C 40.175781 474.738281 41.410156 474.976562 42.796875 474.976562 C 44.214844 474.976562 45.46875 474.71875 46.566406 474.203125 C 47.664062 473.6875 48.53125 472.980469 49.167969 472.078125 C 49.804688 471.175781 50.117188 470.15625 50.109375 469.019531 C 50.117188 467.710938 49.742188 466.617188 48.984375 465.738281 C 48.226562 464.855469 47.160156 464.308594 45.789062 464.101562" fill="#f14159"/></g><g id="change4_16"><path d="M 64.40625 470.289062 C 63.617188 471.65625 62.519531 472.339844 61.117188 472.339844 C 60.183594 472.339844 59.382812 472.035156 58.714844 471.425781 C 58.050781 470.816406 57.535156 469.917969 57.175781 468.730469 C 56.816406 467.542969 56.636719 466.085938 56.636719 464.363281 C 56.640625 461.785156 57.042969 459.808594 57.835938 458.433594 C 58.632812 457.058594 59.726562 456.375 61.117188 456.375 C 62.042969 456.375 62.839844 456.683594 63.507812 457.300781 C 64.175781 457.914062 64.691406 458.816406 65.050781 460.007812 C 65.414062 461.191406 65.59375 462.644531 65.59375 464.363281 C 65.59375 466.949219 65.199219 468.925781 64.40625 470.289062 Z M 65.191406 454.984375 C 64.058594 454.148438 62.703125 453.726562 61.117188 453.726562 C 59.535156 453.726562 58.179688 454.144531 57.042969 454.980469 C 55.910156 455.816406 55.039062 457.027344 54.4375 458.617188 C 53.835938 460.203125 53.535156 462.121094 53.535156 464.363281 C 53.535156 466.613281 53.835938 468.53125 54.433594 470.128906 C 55.03125 471.726562 55.898438 472.941406 57.03125 473.777344 C 58.160156 474.609375 59.523438 475.03125 61.117188 475.039062 C 62.707031 475.039062 64.066406 474.617188 65.199219 473.78125 C 66.332031 472.941406 67.195312 471.726562 67.792969 470.132812 C 68.394531 468.542969 68.695312 466.617188 68.695312 464.363281 C 68.695312 462.121094 68.394531 460.207031 67.789062 458.621094 C 67.1875 457.035156 66.320312 455.824219 65.191406 454.984375" fill="#f14159"/></g><g id="change5_1"><path d="M 79.871094 0 C 73.453125 0 68.25 5.203125 68.25 11.621094 L 68.25 43.507812 C 68.25 49.925781 73.453125 55.128906 79.871094 55.128906 C 86.292969 55.128906 91.496094 49.925781 91.496094 43.507812 L 91.496094 11.621094 C 91.496094 5.203125 86.292969 0 79.871094 0" fill="#3d4c52"/></g><g id="change5_2"><path d="M 176.683594 43.507812 L 176.683594 11.621094 C 176.683594 5.203125 171.480469 0 165.0625 0 C 158.640625 0 153.4375 5.203125 153.4375 11.621094 L 153.4375 43.507812 C 153.4375 49.925781 158.640625 55.128906 165.0625 55.128906 C 171.480469 55.128906 176.683594 49.925781 176.683594 43.507812" fill="#3d4c52"/></g><g id="change5_3"><path d="M 250.246094 55.128906 C 256.667969 55.128906 261.871094 49.925781 261.871094 43.507812 L 261.871094 11.621094 C 261.871094 5.203125 256.667969 0 250.246094 0 C 243.828125 0 238.625 5.203125 238.625 11.621094 L 238.625 43.507812 C 238.625 49.925781 243.828125 55.128906 250.246094 55.128906" fill="#3d4c52"/></g><g id="change5_4"><path d="M 420.621094 0 C 414.203125 0 409 5.203125 409 11.621094 L 409 43.507812 C 409 49.925781 414.203125 55.128906 420.621094 55.128906 C 427.042969 55.128906 432.246094 49.925781 432.246094 43.507812 L 432.246094 11.621094 C 432.246094 5.203125 427.042969 0 420.621094 0" fill="#3d4c52"/></g><g id="change5_5"><path d="M 335.4375 0 C 329.015625 0 323.8125 5.203125 323.8125 11.621094 L 323.8125 43.507812 C 323.8125 49.925781 329.015625 55.128906 335.4375 55.128906 C 341.855469 55.128906 347.058594 49.925781 347.058594 43.507812 L 347.058594 11.621094 C 347.058594 5.203125 341.855469 0 335.4375 0" fill="#3d4c52"/></g><g id="change5_6"><path d="M 120.566406 289.847656 C 119.9375 290.132812 119.214844 290.273438 118.402344 290.273438 C 117.660156 290.273438 116.988281 290.152344 116.382812 289.910156 C 115.777344 289.667969 115.285156 289.324219 114.910156 288.875 C 114.539062 288.425781 114.332031 287.898438 114.289062 287.285156 L 111.121094 287.285156 C 111.167969 288.410156 111.503906 289.398438 112.136719 290.25 C 112.765625 291.101562 113.621094 291.765625 114.710938 292.242188 C 115.796875 292.722656 117.035156 292.960938 118.421875 292.960938 C 119.835938 292.960938 121.09375 292.703125 122.1875 292.1875 C 123.285156 291.671875 124.152344 290.964844 124.789062 290.0625 C 125.425781 289.160156 125.742188 288.140625 125.734375 287.003906 C 125.742188 285.695312 125.363281 284.601562 124.609375 283.71875 C 123.851562 282.835938 122.785156 282.292969 121.410156 282.085938 L 121.410156 281.921875 C 122.488281 281.644531 123.351562 281.105469 124.003906 280.296875 C 124.652344 279.488281 124.972656 278.507812 124.96875 277.347656 C 124.972656 276.332031 124.710938 275.394531 124.183594 274.539062 C 123.65625 273.683594 122.90625 273 121.941406 272.484375 C 120.976562 271.96875 119.828125 271.710938 118.503906 271.710938 C 117.234375 271.710938 116.085938 271.949219 115.046875 272.429688 C 114.011719 272.90625 113.179688 273.570312 112.550781 274.417969 C 111.921875 275.265625 111.589844 276.25 111.554688 277.367188 L 114.574219 277.367188 C 114.601562 276.734375 114.796875 276.191406 115.160156 275.738281 C 115.523438 275.28125 115.996094 274.933594 116.578125 274.683594 C 117.160156 274.441406 117.789062 274.316406 118.464844 274.316406 C 119.167969 274.316406 119.785156 274.453125 120.304688 274.722656 C 120.828125 274.992188 121.230469 275.363281 121.515625 275.839844 C 121.804688 276.3125 121.945312 276.871094 121.945312 277.507812 C 121.945312 278.175781 121.78125 278.757812 121.453125 279.25 C 121.121094 279.746094 120.664062 280.132812 120.082031 280.40625 C 119.5 280.683594 118.824219 280.820312 118.058594 280.820312 L 116.3125 280.820312 L 116.3125 283.367188 L 118.058594 283.367188 C 119.015625 283.367188 119.832031 283.519531 120.507812 283.820312 C 121.183594 284.121094 121.699219 284.539062 122.054688 285.066406 C 122.40625 285.597656 122.582031 286.207031 122.582031 286.902344 C 122.582031 287.566406 122.402344 288.15625 122.046875 288.664062 C 121.691406 289.171875 121.195312 289.566406 120.566406 289.847656" fill="#3d4c52"/></g><g id="change5_7"><path d="M 180.355469 285.992188 L 180.355469 285.828125 L 186.75 275.710938 L 186.910156 275.710938 L 186.910156 285.992188 Z M 186.890625 292.679688 L 189.871094 292.679688 L 189.871094 288.636719 L 192.605469 288.636719 L 192.605469 285.992188 L 189.871094 285.992188 L 189.871094 271.992188 L 186.023438 271.992188 L 177.085938 286.113281 L 177.085938 288.636719 L 186.890625 288.636719 L 186.890625 292.679688" fill="#3d4c52"/></g><g id="change5_8"><path d="M 253.382812 289.785156 C 252.769531 290.152344 252.0625 290.335938 251.269531 290.335938 C 250.269531 290.335938 249.417969 290.050781 248.703125 289.476562 C 247.988281 288.902344 247.59375 288.171875 247.519531 287.285156 L 244.492188 287.285156 C 244.53125 288.382812 244.851562 289.359375 245.449219 290.214844 C 246.050781 291.070312 246.855469 291.742188 247.859375 292.226562 C 248.867188 292.71875 250.003906 292.960938 251.269531 292.960938 C 252.65625 292.960938 253.886719 292.660156 254.960938 292.058594 C 256.03125 291.453125 256.875 290.628906 257.484375 289.578125 C 258.09375 288.527344 258.394531 287.332031 258.386719 285.992188 C 258.394531 284.652344 258.113281 283.464844 257.546875 282.429688 C 256.976562 281.398438 256.199219 280.582031 255.210938 279.984375 C 254.226562 279.382812 253.101562 279.085938 251.84375 279.085938 C 251.074219 279.085938 250.359375 279.214844 249.6875 279.476562 C 249.015625 279.742188 248.480469 280.066406 248.074219 280.457031 L 247.957031 280.457031 L 248.613281 274.671875 L 257.386719 274.671875 L 257.386719 271.992188 L 246.015625 271.992188 L 244.855469 282.417969 L 247.714844 282.839844 C 248.101562 282.492188 248.613281 282.207031 249.246094 281.992188 C 249.882812 281.777344 250.511719 281.667969 251.136719 281.667969 C 251.957031 281.675781 252.6875 281.867188 253.324219 282.246094 C 253.960938 282.621094 254.460938 283.140625 254.824219 283.800781 C 255.1875 284.460938 255.367188 285.210938 255.367188 286.050781 C 255.367188 286.882812 255.191406 287.617188 254.839844 288.265625 C 254.484375 288.910156 254 289.417969 253.382812 289.785156" fill="#3d4c52"/></g><g id="change5_9"><path d="M 314.035156 284.339844 C 314.257812 283.820312 314.558594 283.355469 314.941406 282.953125 C 315.324219 282.546875 315.769531 282.230469 316.28125 282.003906 C 316.789062 281.773438 317.339844 281.660156 317.941406 281.660156 C 318.730469 281.660156 319.429688 281.851562 320.046875 282.234375 C 320.664062 282.617188 321.148438 283.136719 321.5 283.789062 C 321.855469 284.441406 322.03125 285.167969 322.03125 285.960938 C 322.03125 286.777344 321.847656 287.511719 321.484375 288.171875 C 321.121094 288.832031 320.628906 289.359375 320 289.75 C 319.375 290.140625 318.664062 290.335938 317.871094 290.335938 C 317.074219 290.335938 316.363281 290.136719 315.734375 289.734375 C 315.105469 289.332031 314.609375 288.804688 314.25 288.144531 C 313.890625 287.484375 313.710938 286.765625 313.710938 285.992188 C 313.710938 285.414062 313.816406 284.863281 314.035156 284.339844 Z M 312.730469 290.839844 C 313.457031 291.59375 314.265625 292.132812 315.15625 292.453125 C 316.050781 292.777344 316.957031 292.945312 317.878906 292.960938 C 319.320312 292.976562 320.578125 292.667969 321.65625 292.046875 C 322.734375 291.421875 323.570312 290.578125 324.167969 289.507812 C 324.761719 288.4375 325.058594 287.242188 325.058594 285.921875 C 325.058594 284.601562 324.769531 283.429688 324.191406 282.40625 C 323.613281 281.382812 322.835938 280.578125 321.863281 279.996094 C 320.890625 279.414062 319.804688 279.125 318.605469 279.125 C 317.886719 279.125 317.199219 279.238281 316.550781 279.464844 C 315.902344 279.6875 315.316406 280.007812 314.792969 280.421875 C 314.273438 280.835938 313.832031 281.335938 313.476562 281.921875 L 313.324219 281.921875 C 313.332031 279.550781 313.757812 277.707031 314.601562 276.382812 C 315.445312 275.058594 316.628906 274.398438 318.144531 274.398438 C 319.140625 274.398438 319.945312 274.671875 320.566406 275.222656 C 321.183594 275.769531 321.601562 276.484375 321.808594 277.367188 L 324.890625 277.367188 C 324.726562 276.257812 324.347656 275.273438 323.753906 274.417969 C 323.15625 273.5625 322.382812 272.890625 321.425781 272.398438 C 320.46875 271.90625 319.375 271.660156 318.144531 271.660156 C 316.945312 271.660156 315.863281 271.914062 314.898438 272.417969 C 313.9375 272.925781 313.117188 273.660156 312.4375 274.632812 C 311.757812 275.597656 311.238281 276.789062 310.875 278.199219 C 310.515625 279.613281 310.335938 281.222656 310.335938 283.03125 C 310.335938 284.9375 310.550781 286.527344 310.988281 287.800781 C 311.421875 289.074219 312.003906 290.085938 312.730469 290.839844" fill="#3d4c52"/></g><g id="change5_10"><path d="M 387.628906 274.824219 L 378.601562 292.679688 L 381.863281 292.679688 L 390.863281 274.761719 L 390.863281 271.992188 L 377.1875 271.992188 L 377.1875 274.671875 L 387.628906 274.671875 L 387.628906 274.824219" fill="#3d4c52"/></g><g id="change5_11"><path d="M 109.191406 320.628906 L 109.191406 338.183594 L 112.320312 338.183594 L 112.320312 317.5 L 109.28125 317.5 L 104.121094 320.871094 L 104.121094 323.863281 L 109.070312 320.628906 L 109.191406 320.628906" fill="#3d4c52"/></g><g id="change5_12"><path d="M 121.835938 321.921875 C 122.628906 320.546875 123.726562 319.863281 125.117188 319.863281 C 126.039062 319.863281 126.835938 320.171875 127.507812 320.785156 C 128.175781 321.402344 128.691406 322.304688 129.050781 323.492188 C 129.410156 324.679688 129.589844 326.132812 129.589844 327.851562 C 129.589844 330.4375 129.195312 332.414062 128.40625 333.777344 C 127.613281 335.144531 126.519531 335.828125 125.117188 335.828125 C 124.179688 335.828125 123.382812 335.523438 122.714844 334.914062 C 122.046875 334.304688 121.535156 333.40625 121.175781 332.21875 C 120.8125 331.03125 120.632812 329.574219 120.632812 327.851562 C 120.640625 325.273438 121.039062 323.296875 121.835938 321.921875 Z M 121.027344 337.265625 C 122.160156 338.097656 123.523438 338.519531 125.117188 338.527344 C 126.707031 338.527344 128.066406 338.105469 129.199219 337.269531 C 130.328125 336.429688 131.195312 335.214844 131.792969 333.621094 C 132.394531 332.03125 132.691406 330.105469 132.691406 327.851562 C 132.691406 325.609375 132.390625 323.695312 131.789062 322.109375 C 131.1875 320.523438 130.320312 319.3125 129.1875 318.472656 C 128.054688 317.636719 126.699219 317.214844 125.117188 317.214844 C 123.535156 317.214844 122.175781 317.632812 121.042969 318.46875 C 119.90625 319.304688 119.039062 320.515625 118.4375 322.105469 C 117.835938 323.691406 117.53125 325.609375 117.53125 327.851562 C 117.53125 330.101562 117.832031 332.019531 118.433594 333.617188 C 119.03125 335.214844 119.898438 336.429688 121.027344 337.265625" fill="#3d4c52"/></g><g id="change5_13"><path d="M 181.226562 317.5 L 178.1875 317.5 L 173.023438 320.871094 L 173.023438 323.863281 L 177.972656 320.628906 L 178.09375 320.628906 L 178.09375 338.183594 L 181.226562 338.183594 L 181.226562 317.5" fill="#3d4c52"/></g><g id="change5_14"><path d="M 194.667969 338.183594 L 194.667969 317.5 L 191.628906 317.5 L 186.46875 320.871094 L 186.46875 323.863281 L 191.414062 320.628906 L 191.535156 320.628906 L 191.535156 338.183594 L 194.667969 338.183594" fill="#3d4c52"/></g><g id="change5_15"><path d="M 242.53125 320.628906 L 242.53125 338.183594 L 245.664062 338.183594 L 245.664062 317.5 L 242.625 317.5 L 237.464844 320.871094 L 237.464844 323.863281 L 242.410156 320.628906 L 242.53125 320.628906" fill="#3d4c52"/></g><g id="change5_16"><path d="M 257.933594 317.214844 C 256.648438 317.214844 255.5 317.476562 254.488281 317.996094 C 253.480469 318.519531 252.683594 319.253906 252.105469 320.195312 C 251.527344 321.136719 251.238281 322.238281 251.238281 323.496094 L 254.21875 323.496094 C 254.21875 322.757812 254.363281 322.113281 254.660156 321.558594 C 254.957031 321.007812 255.382812 320.578125 255.933594 320.277344 C 256.484375 319.972656 257.132812 319.820312 257.875 319.820312 C 258.574219 319.820312 259.203125 319.957031 259.761719 320.230469 C 260.320312 320.503906 260.761719 320.890625 261.085938 321.390625 C 261.40625 321.894531 261.570312 322.488281 261.570312 323.175781 C 261.570312 323.78125 261.449219 324.351562 261.207031 324.890625 C 260.964844 325.429688 260.597656 325.996094 260.109375 326.59375 C 259.621094 327.191406 259.003906 327.882812 258.257812 328.667969 L 251.257812 335.921875 L 251.257812 338.183594 L 264.871094 338.183594 L 264.871094 335.507812 L 255.5625 335.507812 L 255.5625 335.355469 L 259.671875 331.054688 C 260.929688 329.773438 261.914062 328.683594 262.621094 327.785156 C 263.328125 326.886719 263.824219 326.070312 264.109375 325.335938 C 264.394531 324.601562 264.539062 323.851562 264.539062 323.085938 C 264.539062 321.972656 264.261719 320.976562 263.699219 320.089844 C 263.140625 319.203125 262.367188 318.503906 261.375 317.988281 C 260.378906 317.472656 259.234375 317.214844 257.933594 317.214844" fill="#3d4c52"/></g><g id="change5_17"><path d="M 308.53125 320.628906 L 308.53125 338.183594 L 311.664062 338.183594 L 311.664062 317.5 L 308.621094 317.5 L 303.460938 320.871094 L 303.460938 323.863281 L 308.410156 320.628906 L 308.53125 320.628906" fill="#3d4c52"/></g><g id="change5_18"><path d="M 320.746094 337.75 C 321.835938 338.226562 323.074219 338.464844 324.460938 338.464844 C 325.875 338.464844 327.128906 338.207031 328.226562 337.691406 C 329.324219 337.175781 330.191406 336.46875 330.828125 335.566406 C 331.464844 334.664062 331.777344 333.644531 331.773438 332.507812 C 331.777344 331.199219 331.402344 330.105469 330.644531 329.222656 C 329.886719 328.34375 328.820312 327.796875 327.449219 327.589844 L 327.449219 327.425781 C 328.527344 327.152344 329.390625 326.609375 330.039062 325.800781 C 330.6875 324.992188 331.011719 324.011719 331.003906 322.851562 C 331.011719 321.835938 330.75 320.898438 330.222656 320.042969 C 329.691406 319.191406 328.945312 318.503906 327.980469 317.988281 C 327.011719 317.472656 325.867188 317.214844 324.539062 317.214844 C 323.273438 317.214844 322.125 317.453125 321.085938 317.933594 C 320.050781 318.410156 319.214844 319.074219 318.585938 319.921875 C 317.957031 320.769531 317.625 321.753906 317.59375 322.871094 L 320.613281 322.871094 C 320.636719 322.238281 320.835938 321.695312 321.195312 321.242188 C 321.5625 320.785156 322.035156 320.4375 322.617188 320.191406 C 323.199219 319.945312 323.824219 319.820312 324.5 319.820312 C 325.207031 319.820312 325.820312 319.957031 326.34375 320.226562 C 326.863281 320.496094 327.269531 320.867188 327.554688 321.34375 C 327.839844 321.816406 327.984375 322.375 327.984375 323.015625 C 327.984375 323.679688 327.820312 324.261719 327.488281 324.753906 C 327.160156 325.25 326.703125 325.636719 326.121094 325.910156 C 325.539062 326.1875 324.863281 326.324219 324.097656 326.324219 L 322.347656 326.324219 L 322.347656 328.871094 L 324.097656 328.871094 C 325.050781 328.871094 325.867188 329.023438 326.546875 329.324219 C 327.222656 329.628906 327.738281 330.042969 328.089844 330.574219 C 328.445312 331.101562 328.621094 331.714844 328.621094 332.40625 C 328.621094 333.074219 328.441406 333.660156 328.085938 334.167969 C 327.726562 334.675781 327.234375 335.070312 326.605469 335.355469 C 325.976562 335.636719 325.253906 335.777344 324.4375 335.777344 C 323.699219 335.777344 323.027344 335.65625 322.421875 335.414062 C 321.8125 335.171875 321.324219 334.828125 320.949219 334.382812 C 320.574219 333.933594 320.371094 333.402344 320.328125 332.789062 L 317.15625 332.789062 C 317.203125 333.914062 317.542969 334.902344 318.175781 335.753906 C 318.800781 336.605469 319.660156 337.269531 320.746094 337.75" fill="#3d4c52"/></g><g id="change5_19"><path d="M 374.828125 320.628906 L 374.828125 338.183594 L 377.960938 338.183594 L 377.960938 317.5 L 374.921875 317.5 L 369.757812 320.871094 L 369.757812 323.863281 L 374.707031 320.628906 L 374.828125 320.628906" fill="#3d4c52"/></g><g id="change5_20"><path d="M 386.394531 331.335938 L 392.785156 321.214844 L 392.949219 321.214844 L 392.949219 331.496094 L 386.394531 331.496094 Z M 383.121094 334.140625 L 392.925781 334.140625 L 392.925781 338.183594 L 395.90625 338.183594 L 395.90625 334.140625 L 398.644531 334.140625 L 398.644531 331.496094 L 395.90625 331.496094 L 395.90625 317.5 L 392.058594 317.5 L 383.121094 331.617188 L 383.121094 334.140625" fill="#3d4c52"/></g><g id="change5_21"><path d="M 113.277344 383.6875 L 113.277344 363.003906 L 110.234375 363.003906 L 105.074219 366.378906 L 105.074219 369.367188 L 110.023438 366.132812 L 110.144531 366.132812 L 110.144531 383.6875 L 113.277344 383.6875" fill="#3d4c52"/></g><g id="change5_22"><path d="M 128.597656 365.832031 L 119.566406 383.6875 L 122.828125 383.6875 L 131.828125 365.769531 L 131.828125 363.003906 L 118.152344 363.003906 L 118.152344 365.679688 L 128.597656 365.679688 L 128.597656 365.832031" fill="#3d4c52"/></g><g id="change5_23"><path d="M 178.96875 383.6875 L 178.96875 363.003906 L 175.929688 363.003906 L 170.769531 366.378906 L 170.769531 369.367188 L 175.71875 366.132812 L 175.835938 366.132812 L 175.835938 383.6875 L 178.96875 383.6875" fill="#3d4c52"/></g><g id="change5_24"><path d="M 187.886719 376.0625 C 188.25 375.511719 188.746094 375.074219 189.382812 374.761719 C 190.015625 374.445312 190.738281 374.285156 191.550781 374.285156 C 192.359375 374.285156 193.078125 374.445312 193.703125 374.761719 C 194.328125 375.074219 194.828125 375.511719 195.195312 376.0625 C 195.5625 376.613281 195.746094 377.25 195.753906 377.972656 C 195.746094 378.664062 195.570312 379.269531 195.230469 379.785156 C 194.886719 380.300781 194.402344 380.699219 193.773438 380.984375 C 193.148438 381.273438 192.40625 381.414062 191.550781 381.414062 C 190.691406 381.414062 189.941406 381.273438 189.3125 380.984375 C 188.679688 380.699219 188.191406 380.300781 187.851562 379.785156 C 187.511719 379.269531 187.34375 378.664062 187.351562 377.972656 C 187.34375 377.25 187.523438 376.613281 187.886719 376.0625 Z M 187.996094 368.496094 C 187.992188 367.851562 188.136719 367.285156 188.433594 366.800781 C 188.730469 366.316406 189.144531 365.941406 189.679688 365.675781 C 190.214844 365.410156 190.839844 365.277344 191.550781 365.277344 C 192.253906 365.277344 192.867188 365.410156 193.402344 365.675781 C 193.933594 365.941406 194.347656 366.316406 194.648438 366.800781 C 194.949219 367.285156 195.101562 367.851562 195.105469 368.496094 C 195.101562 369.15625 194.945312 369.734375 194.636719 370.226562 C 194.332031 370.714844 193.914062 371.101562 193.378906 371.375 C 192.847656 371.652344 192.238281 371.789062 191.550781 371.789062 C 190.851562 371.789062 190.234375 371.652344 189.699219 371.375 C 189.164062 371.101562 188.746094 370.714844 188.441406 370.226562 C 188.140625 369.734375 187.992188 369.15625 187.996094 368.496094 Z M 191.550781 383.972656 C 192.988281 383.972656 194.257812 383.722656 195.363281 383.222656 C 196.472656 382.726562 197.339844 382.039062 197.96875 381.164062 C 198.59375 380.289062 198.90625 379.289062 198.914062 378.171875 C 198.90625 377.296875 198.71875 376.492188 198.34375 375.753906 C 197.972656 375.019531 197.472656 374.402344 196.851562 373.90625 C 196.226562 373.410156 195.527344 373.097656 194.753906 372.960938 L 194.753906 372.839844 C 195.757812 372.59375 196.570312 372.039062 197.199219 371.183594 C 197.824219 370.328125 198.140625 369.347656 198.148438 368.234375 C 198.140625 367.183594 197.851562 366.242188 197.28125 365.414062 C 196.707031 364.582031 195.925781 363.925781 194.929688 363.445312 C 193.9375 362.960938 192.8125 362.71875 191.550781 362.71875 C 190.28125 362.71875 189.144531 362.960938 188.148438 363.4375 C 187.152344 363.914062 186.371094 364.570312 185.800781 365.402344 C 185.230469 366.234375 184.949219 367.179688 184.957031 368.234375 C 184.949219 369.347656 185.257812 370.328125 185.878906 371.183594 C 186.496094 372.039062 187.320312 372.59375 188.351562 372.839844 L 188.351562 372.960938 C 187.570312 373.097656 186.863281 373.410156 186.230469 373.90625 C 185.597656 374.402344 185.097656 375.019531 184.730469 375.753906 C 184.363281 376.492188 184.183594 377.296875 184.191406 378.171875 C 184.183594 379.289062 184.492188 380.289062 185.121094 381.164062 C 185.746094 382.039062 186.613281 382.726562 187.71875 383.222656 C 188.828125 383.722656 190.105469 383.972656 191.550781 383.972656" fill="#3d4c52"/></g><g id="change5_25"><path d="M 242.214844 366.132812 L 242.214844 383.6875 L 245.34375 383.6875 L 245.34375 363.003906 L 242.304688 363.003906 L 237.144531 366.378906 L 237.144531 369.367188 L 242.09375 366.132812 L 242.214844 366.132812" fill="#3d4c52"/></g><g id="change5_26"><path d="M 261.660156 371.28125 C 261.441406 371.804688 261.144531 372.265625 260.761719 372.675781 C 260.382812 373.082031 259.933594 373.398438 259.425781 373.628906 C 258.910156 373.859375 258.359375 373.972656 257.769531 373.972656 C 256.972656 373.972656 256.269531 373.78125 255.652344 373.402344 C 255.035156 373.019531 254.550781 372.503906 254.195312 371.851562 C 253.84375 371.199219 253.667969 370.472656 253.667969 369.671875 C 253.667969 368.855469 253.851562 368.117188 254.214844 367.457031 C 254.578125 366.796875 255.074219 366.273438 255.703125 365.882812 C 256.332031 365.492188 257.039062 365.296875 257.828125 365.296875 C 258.628906 365.296875 259.34375 365.496094 259.96875 365.898438 C 260.59375 366.296875 261.089844 366.828125 261.449219 367.488281 C 261.808594 368.148438 261.988281 368.863281 261.988281 369.640625 C 261.988281 370.210938 261.878906 370.757812 261.660156 371.28125 Z M 254.273438 383.242188 C 255.230469 383.726562 256.324219 383.972656 257.554688 383.972656 C 258.761719 383.972656 259.84375 383.71875 260.800781 383.210938 C 261.761719 382.707031 262.582031 381.96875 263.261719 381 C 263.941406 380.03125 264.460938 378.84375 264.820312 377.433594 C 265.183594 376.019531 265.367188 374.410156 265.371094 372.597656 C 265.367188 370.691406 265.144531 369.105469 264.710938 367.832031 C 264.277344 366.558594 263.695312 365.546875 262.972656 364.796875 C 262.25 364.046875 261.441406 363.507812 260.546875 363.175781 C 259.648438 362.84375 258.742188 362.675781 257.816406 362.671875 C 256.371094 362.664062 255.109375 362.972656 254.035156 363.59375 C 252.960938 364.21875 252.128906 365.0625 251.53125 366.128906 C 250.933594 367.195312 250.636719 368.390625 250.636719 369.710938 C 250.636719 371.03125 250.925781 372.203125 251.5 373.226562 C 252.074219 374.246094 252.855469 375.054688 253.835938 375.640625 C 254.8125 376.226562 255.898438 376.519531 257.089844 376.519531 C 257.824219 376.519531 258.515625 376.402344 259.160156 376.175781 C 259.808594 375.945312 260.390625 375.621094 260.914062 375.203125 C 261.433594 374.785156 261.871094 374.289062 262.222656 373.710938 L 262.382812 373.710938 C 262.375 376.085938 261.949219 377.9375 261.101562 379.257812 C 260.253906 380.582031 259.070312 381.242188 257.554688 381.242188 C 256.566406 381.242188 255.757812 380.96875 255.136719 380.421875 C 254.515625 379.871094 254.101562 379.152344 253.898438 378.265625 L 250.820312 378.265625 C 250.96875 379.382812 251.339844 380.367188 251.941406 381.230469 C 252.539062 382.085938 253.316406 382.757812 254.273438 383.242188" fill="#3d4c52"/></g><g id="change5_27"><path d="M 310.644531 372.097656 C 310.15625 372.695312 309.539062 373.386719 308.789062 374.175781 L 301.789062 381.425781 L 301.789062 383.6875 L 315.40625 383.6875 L 315.40625 381.011719 L 306.09375 381.011719 L 306.09375 380.859375 L 310.203125 376.558594 C 311.464844 375.277344 312.445312 374.1875 313.152344 373.289062 C 313.859375 372.390625 314.355469 371.574219 314.644531 370.839844 C 314.929688 370.105469 315.074219 369.355469 315.074219 368.589844 C 315.074219 367.476562 314.792969 366.480469 314.234375 365.59375 C 313.675781 364.710938 312.898438 364.007812 311.90625 363.492188 C 310.910156 362.976562 309.765625 362.71875 308.46875 362.71875 C 307.179688 362.71875 306.03125 362.980469 305.023438 363.503906 C 304.011719 364.027344 303.21875 364.757812 302.640625 365.699219 C 302.0625 366.644531 301.773438 367.746094 301.773438 369.003906 L 304.75 369.003906 C 304.75 368.261719 304.898438 367.617188 305.195312 367.0625 C 305.492188 366.511719 305.914062 366.082031 306.46875 365.78125 C 307.019531 365.476562 307.664062 365.324219 308.40625 365.324219 C 309.105469 365.324219 309.734375 365.460938 310.296875 365.734375 C 310.855469 366.007812 311.296875 366.394531 311.617188 366.898438 C 311.941406 367.398438 312.101562 367.992188 312.101562 368.679688 C 312.101562 369.285156 311.980469 369.859375 311.738281 370.398438 C 311.496094 370.9375 311.132812 371.503906 310.644531 372.097656" fill="#3d4c52"/></g><g id="change5_28"><path d="M 329.722656 379.285156 C 328.929688 380.652344 327.835938 381.335938 326.433594 381.335938 C 325.496094 381.335938 324.695312 381.03125 324.027344 380.421875 C 323.363281 379.8125 322.851562 378.910156 322.488281 377.726562 C 322.128906 376.535156 321.949219 375.078125 321.949219 373.355469 C 321.957031 370.777344 322.355469 368.800781 323.152344 367.425781 C 323.945312 366.054688 325.039062 365.367188 326.433594 365.367188 C 327.355469 365.367188 328.152344 365.675781 328.820312 366.289062 C 329.492188 366.90625 330.007812 367.808594 330.367188 369 C 330.726562 370.1875 330.90625 371.640625 330.90625 373.355469 C 330.90625 375.941406 330.511719 377.917969 329.722656 379.285156 Z M 330.503906 363.976562 C 329.371094 363.140625 328.015625 362.71875 326.433594 362.71875 C 324.851562 362.71875 323.492188 363.136719 322.359375 363.972656 C 321.222656 364.808594 320.355469 366.019531 319.753906 367.609375 C 319.152344 369.199219 318.847656 371.113281 318.847656 373.355469 C 318.847656 375.605469 319.148438 377.527344 319.746094 379.121094 C 320.347656 380.71875 321.210938 381.933594 322.34375 382.769531 C 323.472656 383.605469 324.839844 384.023438 326.433594 384.03125 C 328.023438 384.03125 329.382812 383.613281 330.515625 382.773438 C 331.644531 381.933594 332.511719 380.722656 333.109375 379.128906 C 333.707031 377.535156 334.007812 375.613281 334.007812 373.355469 C 334.007812 371.113281 333.707031 369.199219 333.105469 367.613281 C 332.5 366.027344 331.636719 364.816406 330.503906 363.976562" fill="#3d4c52"/></g><g id="change5_29"><path d="M 374.996094 380.859375 L 379.105469 376.558594 C 380.363281 375.277344 381.347656 374.1875 382.054688 373.289062 C 382.761719 372.390625 383.257812 371.574219 383.542969 370.839844 C 383.828125 370.105469 383.972656 369.355469 383.972656 368.589844 C 383.972656 367.476562 383.695312 366.480469 383.136719 365.59375 C 382.578125 364.710938 381.800781 364.007812 380.808594 363.492188 C 379.8125 362.976562 378.667969 362.71875 377.367188 362.71875 C 376.082031 362.71875 374.933594 362.980469 373.925781 363.503906 C 372.914062 364.027344 372.121094 364.757812 371.542969 365.699219 C 370.960938 366.644531 370.671875 367.746094 370.671875 369.003906 L 373.652344 369.003906 C 373.652344 368.261719 373.800781 367.617188 374.097656 367.0625 C 374.394531 366.511719 374.816406 366.082031 375.367188 365.78125 C 375.921875 365.476562 376.566406 365.324219 377.308594 365.324219 C 378.007812 365.324219 378.636719 365.460938 379.195312 365.734375 C 379.757812 366.007812 380.195312 366.394531 380.519531 366.898438 C 380.84375 367.398438 381.003906 367.992188 381.003906 368.679688 C 381.003906 369.285156 380.882812 369.859375 380.640625 370.398438 C 380.398438 370.9375 380.03125 371.503906 379.546875 372.097656 C 379.058594 372.695312 378.441406 373.386719 377.691406 374.175781 L 370.691406 381.425781 L 370.691406 383.6875 L 384.308594 383.6875 L 384.308594 381.011719 L 374.996094 381.011719 L 374.996094 380.859375" fill="#3d4c52"/></g><g id="change5_30"><path d="M 395.980469 383.6875 L 395.980469 363.003906 L 392.941406 363.003906 L 387.78125 366.378906 L 387.78125 369.367188 L 392.730469 366.132812 L 392.851562 366.132812 L 392.851562 383.6875 L 395.980469 383.6875" fill="#3d4c52"/></g><g id="change5_31"><path d="M 106.660156 426.359375 L 110.769531 422.058594 C 112.03125 420.78125 113.011719 419.691406 113.71875 418.792969 C 114.425781 417.894531 114.921875 417.078125 115.210938 416.34375 C 115.496094 415.609375 115.640625 414.859375 115.640625 414.089844 C 115.640625 412.980469 115.359375 411.980469 114.800781 411.097656 C 114.242188 410.210938 113.464844 409.511719 112.472656 408.996094 C 111.480469 408.480469 110.335938 408.222656 109.035156 408.222656 C 107.746094 408.222656 106.601562 408.484375 105.589844 409.007812 C 104.582031 409.527344 103.785156 410.261719 103.207031 411.203125 C 102.628906 412.144531 102.339844 413.246094 102.339844 414.507812 L 105.316406 414.507812 C 105.316406 413.765625 105.464844 413.117188 105.761719 412.566406 C 106.058594 412.015625 106.480469 411.585938 107.035156 411.285156 C 107.585938 410.980469 108.234375 410.828125 108.972656 410.828125 C 109.671875 410.828125 110.304688 410.964844 110.863281 411.238281 C 111.421875 411.511719 111.859375 411.898438 112.183594 412.398438 C 112.507812 412.902344 112.667969 413.496094 112.667969 414.183594 C 112.667969 414.789062 112.546875 415.359375 112.304688 415.898438 C 112.0625 416.4375 111.699219 417.003906 111.210938 417.601562 C 110.722656 418.195312 110.105469 418.890625 109.359375 419.675781 L 102.359375 426.929688 L 102.359375 429.191406 L 115.972656 429.191406 L 115.972656 426.511719 L 106.660156 426.511719 L 106.660156 426.359375" fill="#3d4c52"/></g><g id="change5_32"><path d="M 129.191406 422.503906 L 122.636719 422.503906 L 122.636719 422.34375 L 129.03125 412.222656 L 129.191406 412.222656 Z M 132.152344 408.507812 L 128.304688 408.507812 L 119.367188 422.625 L 119.367188 425.148438 L 129.171875 425.148438 L 129.171875 429.191406 L 132.152344 429.191406 L 132.152344 425.148438 L 134.886719 425.148438 L 134.886719 422.503906 L 132.152344 422.503906 L 132.152344 408.507812" fill="#3d4c52"/></g><g id="change5_33"><path d="M 173.585938 426.359375 L 177.695312 422.058594 C 178.953125 420.78125 179.9375 419.691406 180.644531 418.792969 C 181.351562 417.894531 181.847656 417.078125 182.136719 416.34375 C 182.421875 415.609375 182.5625 414.859375 182.5625 414.089844 C 182.5625 412.980469 182.285156 411.980469 181.726562 411.097656 C 181.167969 410.210938 180.390625 409.511719 179.398438 408.996094 C 178.40625 408.480469 177.257812 408.222656 175.960938 408.222656 C 174.671875 408.222656 173.523438 408.484375 172.515625 409.007812 C 171.507812 409.527344 170.710938 410.261719 170.132812 411.203125 C 169.550781 412.144531 169.261719 413.246094 169.261719 414.507812 L 172.242188 414.507812 C 172.242188 413.765625 172.390625 413.117188 172.6875 412.566406 C 172.980469 412.015625 173.40625 411.585938 173.960938 411.285156 C 174.511719 410.980469 175.15625 410.828125 175.898438 410.828125 C 176.597656 410.828125 177.226562 410.964844 177.785156 411.238281 C 178.347656 411.511719 178.785156 411.898438 179.109375 412.398438 C 179.433594 412.902344 179.59375 413.496094 179.59375 414.183594 C 179.59375 414.789062 179.472656 415.359375 179.230469 415.898438 C 178.988281 416.4375 178.621094 417.003906 178.136719 417.601562 C 177.648438 418.195312 177.03125 418.890625 176.28125 419.675781 L 169.285156 426.929688 L 169.285156 429.191406 L 182.898438 429.191406 L 182.898438 426.511719 L 173.585938 426.511719 L 173.585938 426.359375" fill="#3d4c52"/></g><g id="change5_34"><path d="M 197.496094 416.496094 C 196.507812 415.894531 195.386719 415.597656 194.128906 415.597656 C 193.359375 415.597656 192.640625 415.726562 191.972656 415.988281 C 191.300781 416.253906 190.765625 416.578125 190.359375 416.96875 L 190.238281 416.96875 L 190.894531 411.183594 L 199.671875 411.183594 L 199.671875 408.507812 L 188.300781 408.507812 L 187.140625 418.929688 L 189.996094 419.351562 C 190.386719 419.003906 190.898438 418.71875 191.53125 418.503906 C 192.164062 418.289062 192.792969 418.183594 193.421875 418.183594 C 194.242188 418.1875 194.96875 418.382812 195.605469 418.757812 C 196.242188 419.132812 196.742188 419.652344 197.105469 420.3125 C 197.46875 420.972656 197.652344 421.722656 197.652344 422.5625 C 197.652344 423.394531 197.476562 424.128906 197.121094 424.777344 C 196.769531 425.421875 196.285156 425.929688 195.667969 426.296875 C 195.050781 426.664062 194.347656 426.847656 193.550781 426.847656 C 192.554688 426.847656 191.699219 426.5625 190.988281 425.988281 C 190.273438 425.414062 189.878906 424.683594 189.804688 423.796875 L 186.777344 423.796875 C 186.816406 424.894531 187.136719 425.871094 187.734375 426.726562 C 188.335938 427.582031 189.136719 428.253906 190.144531 428.738281 C 191.148438 429.230469 192.285156 429.472656 193.550781 429.472656 C 194.9375 429.472656 196.167969 429.171875 197.242188 428.570312 C 198.316406 427.964844 199.160156 427.140625 199.769531 426.089844 C 200.378906 425.039062 200.679688 423.84375 200.671875 422.503906 C 200.679688 421.164062 200.398438 419.976562 199.828125 418.941406 C 199.261719 417.910156 198.480469 417.09375 197.496094 416.496094" fill="#3d4c52"/></g><g id="change5_35"><path d="M 239.800781 426.359375 L 243.910156 422.058594 C 245.171875 420.78125 246.152344 419.691406 246.859375 418.792969 C 247.566406 417.894531 248.0625 417.078125 248.351562 416.34375 C 248.636719 415.609375 248.777344 414.859375 248.777344 414.089844 C 248.777344 412.980469 248.5 411.980469 247.941406 411.097656 C 247.382812 410.210938 246.605469 409.511719 245.613281 408.996094 C 244.621094 408.480469 243.472656 408.222656 242.175781 408.222656 C 240.886719 408.222656 239.738281 408.484375 238.730469 409.007812 C 237.71875 409.527344 236.925781 410.261719 236.347656 411.203125 C 235.765625 412.144531 235.476562 413.246094 235.476562 414.507812 L 238.457031 414.507812 C 238.457031 413.765625 238.605469 413.117188 238.902344 412.566406 C 239.195312 412.015625 239.621094 411.585938 240.175781 411.285156 C 240.726562 410.980469 241.371094 410.828125 242.113281 410.828125 C 242.8125 410.828125 243.441406 410.964844 244.003906 411.238281 C 244.5625 411.511719 245 411.898438 245.324219 412.398438 C 245.648438 412.902344 245.808594 413.496094 245.808594 414.183594 C 245.808594 414.789062 245.6875 415.359375 245.445312 415.898438 C 245.203125 416.4375 244.839844 417.003906 244.351562 417.601562 C 243.863281 418.195312 243.246094 418.890625 242.496094 419.675781 L 235.5 426.929688 L 235.5 429.191406 L 249.113281 429.191406 L 249.113281 426.511719 L 239.800781 426.511719 L 239.800781 426.359375" fill="#3d4c52"/></g><g id="change5_36"><path d="M 263.765625 424.683594 C 263.402344 425.34375 262.90625 425.871094 262.28125 426.261719 C 261.65625 426.652344 260.945312 426.847656 260.152344 426.847656 C 259.355469 426.847656 258.644531 426.648438 258.015625 426.246094 C 257.386719 425.84375 256.890625 425.316406 256.53125 424.65625 C 256.171875 423.996094 255.988281 423.277344 255.988281 422.503906 C 255.988281 421.925781 256.097656 421.375 256.316406 420.851562 C 256.535156 420.332031 256.835938 419.867188 257.222656 419.464844 C 257.605469 419.058594 258.050781 418.742188 258.558594 418.515625 C 259.066406 418.285156 259.621094 418.171875 260.222656 418.171875 C 261.007812 418.171875 261.710938 418.363281 262.324219 418.746094 C 262.941406 419.132812 263.425781 419.648438 263.78125 420.300781 C 264.136719 420.953125 264.3125 421.679688 264.3125 422.472656 C 264.3125 423.289062 264.128906 424.023438 263.765625 424.683594 Z M 264.144531 416.511719 C 263.171875 415.929688 262.085938 415.636719 260.886719 415.636719 C 260.167969 415.636719 259.480469 415.75 258.832031 415.976562 C 258.183594 416.199219 257.597656 416.519531 257.074219 416.933594 C 256.554688 417.347656 256.113281 417.847656 255.757812 418.433594 L 255.605469 418.433594 C 255.613281 416.0625 256.039062 414.21875 256.882812 412.894531 C 257.730469 411.570312 258.90625 410.910156 260.421875 410.910156 C 261.421875 410.910156 262.226562 411.183594 262.847656 411.734375 C 263.464844 412.28125 263.882812 412.996094 264.089844 413.878906 L 267.171875 413.878906 C 267.007812 412.769531 266.628906 411.785156 266.03125 410.929688 C 265.4375 410.074219 264.660156 409.402344 263.707031 408.910156 C 262.75 408.417969 261.65625 408.171875 260.421875 408.171875 C 259.222656 408.171875 258.144531 408.425781 257.179688 408.929688 C 256.21875 409.4375 255.398438 410.171875 254.71875 411.144531 C 254.035156 412.109375 253.515625 413.304688 253.15625 414.710938 C 252.796875 416.125 252.617188 417.734375 252.617188 419.546875 C 252.617188 421.449219 252.835938 423.039062 253.265625 424.3125 C 253.699219 425.585938 254.28125 426.597656 255.007812 427.351562 C 255.738281 428.105469 256.546875 428.644531 257.4375 428.96875 C 258.332031 429.289062 259.238281 429.457031 260.160156 429.472656 C 261.601562 429.488281 262.859375 429.179688 263.9375 428.558594 C 265.015625 427.933594 265.851562 427.089844 266.445312 426.019531 C 267.042969 424.949219 267.339844 423.753906 267.339844 422.433594 C 267.339844 421.113281 267.050781 419.941406 266.472656 418.917969 C 265.894531 417.894531 265.117188 417.09375 264.144531 416.511719" fill="#3d4c52"/></g><g id="change5_37"><path d="M 307.046875 426.359375 L 311.160156 422.058594 C 312.417969 420.78125 313.402344 419.691406 314.109375 418.792969 C 314.816406 417.894531 315.3125 417.078125 315.597656 416.34375 C 315.882812 415.609375 316.027344 414.859375 316.027344 414.089844 C 316.027344 412.980469 315.746094 411.980469 315.1875 411.097656 C 314.632812 410.210938 313.855469 409.511719 312.859375 408.996094 C 311.867188 408.480469 310.722656 408.222656 309.421875 408.222656 C 308.136719 408.222656 306.988281 408.484375 305.980469 409.007812 C 304.96875 409.527344 304.175781 410.261719 303.59375 411.203125 C 303.015625 412.144531 302.726562 413.246094 302.726562 414.507812 L 305.703125 414.507812 C 305.703125 413.765625 305.855469 413.117188 306.148438 412.566406 C 306.445312 412.015625 306.867188 411.585938 307.421875 411.285156 C 307.972656 410.980469 308.621094 410.828125 309.359375 410.828125 C 310.0625 410.828125 310.691406 410.964844 311.25 411.238281 C 311.808594 411.511719 312.25 411.898438 312.574219 412.398438 C 312.894531 412.902344 313.058594 413.496094 313.058594 414.183594 C 313.058594 414.789062 312.9375 415.359375 312.695312 415.898438 C 312.453125 416.4375 312.085938 417.003906 311.597656 417.601562 C 311.109375 418.195312 310.492188 418.890625 309.746094 419.675781 L 302.746094 426.929688 L 302.746094 429.191406 L 316.359375 429.191406 L 316.359375 426.511719 L 307.046875 426.511719 L 307.046875 426.359375" fill="#3d4c52"/></g><g id="change5_38"><path d="M 319.46875 411.183594 L 329.914062 411.183594 L 329.914062 411.335938 L 320.882812 429.191406 L 324.144531 429.191406 L 333.144531 411.273438 L 333.144531 408.507812 L 319.46875 408.507812 L 319.46875 411.183594" fill="#3d4c52"/></g><g id="change5_39"><path d="M 372.738281 426.359375 L 376.847656 422.058594 C 378.109375 420.78125 379.089844 419.691406 379.796875 418.792969 C 380.503906 417.894531 381 417.078125 381.289062 416.34375 C 381.574219 415.609375 381.71875 414.859375 381.71875 414.089844 C 381.71875 412.980469 381.4375 411.980469 380.878906 411.097656 C 380.320312 410.210938 379.542969 409.511719 378.550781 408.996094 C 377.558594 408.480469 376.410156 408.222656 375.113281 408.222656 C 373.824219 408.222656 372.675781 408.484375 371.667969 409.007812 C 370.65625 409.527344 369.863281 410.261719 369.285156 411.203125 C 368.703125 412.144531 368.414062 413.246094 368.414062 414.507812 L 371.394531 414.507812 C 371.394531 413.765625 371.542969 413.117188 371.839844 412.566406 C 372.136719 412.015625 372.558594 411.585938 373.113281 411.285156 C 373.664062 410.980469 374.3125 410.828125 375.050781 410.828125 C 375.75 410.828125 376.382812 410.964844 376.941406 411.238281 C 377.5 411.511719 377.9375 411.898438 378.261719 412.398438 C 378.585938 412.902344 378.746094 413.496094 378.746094 414.183594 C 378.746094 414.789062 378.625 415.359375 378.382812 415.898438 C 378.140625 416.4375 377.777344 417.003906 377.289062 417.601562 C 376.800781 418.195312 376.183594 418.890625 375.433594 419.675781 L 368.4375 426.929688 L 368.4375 429.191406 L 382.050781 429.191406 L 382.050781 426.511719 L 372.738281 426.511719 L 372.738281 426.359375" fill="#3d4c52"/></g><g id="change5_40"><path d="M 396.542969 425.285156 C 396.199219 425.800781 395.714844 426.203125 395.089844 426.488281 C 394.460938 426.773438 393.722656 426.917969 392.867188 426.917969 C 392.003906 426.917969 391.257812 426.773438 390.625 426.488281 C 389.992188 426.203125 389.503906 425.800781 389.164062 425.285156 C 388.824219 424.773438 388.65625 424.167969 388.664062 423.472656 C 388.65625 422.753906 388.835938 422.117188 389.199219 421.566406 C 389.5625 421.015625 390.0625 420.578125 390.695312 420.261719 C 391.328125 419.945312 392.050781 419.785156 392.867188 419.785156 C 393.675781 419.785156 394.390625 419.945312 395.019531 420.261719 C 395.644531 420.578125 396.140625 421.015625 396.507812 421.566406 C 396.875 422.117188 397.0625 422.753906 397.066406 423.472656 C 397.0625 424.167969 396.886719 424.773438 396.542969 425.285156 Z M 389.3125 414 C 389.304688 413.355469 389.449219 412.789062 389.746094 412.304688 C 390.042969 411.816406 390.457031 411.445312 390.992188 411.179688 C 391.527344 410.910156 392.152344 410.777344 392.867188 410.777344 C 393.566406 410.777344 394.183594 410.910156 394.714844 411.179688 C 395.246094 411.445312 395.660156 411.816406 395.960938 412.304688 C 396.261719 412.789062 396.414062 413.355469 396.421875 414 C 396.414062 414.660156 396.257812 415.234375 395.949219 415.726562 C 395.644531 416.21875 395.226562 416.601562 394.695312 416.878906 C 394.160156 417.152344 393.554688 417.292969 392.867188 417.292969 C 392.164062 417.292969 391.550781 417.152344 391.011719 416.878906 C 390.476562 416.601562 390.058594 416.21875 389.757812 415.726562 C 389.453125 415.234375 389.304688 414.660156 389.3125 414 Z M 398.164062 419.410156 C 397.539062 418.914062 396.84375 418.597656 396.066406 418.464844 L 396.066406 418.34375 C 397.070312 418.09375 397.886719 417.542969 398.511719 416.6875 C 399.136719 415.832031 399.453125 414.847656 399.460938 413.738281 C 399.453125 412.6875 399.164062 411.746094 398.59375 410.914062 C 398.019531 410.085938 397.238281 409.429688 396.242188 408.945312 C 395.25 408.464844 394.125 408.222656 392.867188 408.222656 C 391.59375 408.222656 390.460938 408.464844 389.464844 408.941406 C 388.464844 409.417969 387.683594 410.074219 387.113281 410.90625 C 386.546875 411.738281 386.265625 412.679688 386.269531 413.738281 C 386.265625 414.847656 386.570312 415.832031 387.191406 416.6875 C 387.808594 417.542969 388.632812 418.09375 389.664062 418.34375 L 389.664062 418.464844 C 388.882812 418.597656 388.175781 418.914062 387.542969 419.410156 C 386.910156 419.902344 386.410156 420.519531 386.042969 421.257812 C 385.675781 421.992188 385.496094 422.800781 385.503906 423.675781 C 385.496094 424.792969 385.808594 425.789062 386.433594 426.664062 C 387.058594 427.539062 387.925781 428.226562 389.035156 428.726562 C 390.140625 429.222656 391.417969 429.472656 392.867188 429.472656 C 394.300781 429.472656 395.570312 429.222656 396.679688 428.726562 C 397.785156 428.226562 398.652344 427.539062 399.277344 426.664062 C 399.90625 425.789062 400.222656 424.792969 400.226562 423.675781 C 400.222656 422.800781 400.03125 421.992188 399.65625 421.257812 C 399.285156 420.519531 398.785156 419.902344 398.164062 419.410156" fill="#3d4c52"/></g></g></svg>